<svg xmlns="http://www.w3.org/2000/svg" viewBox="0 0 400 400" height="999" width="999"><g transform="matrix(2,0,0,2,0,0)"><g><path d="M131.86,146.76a8.09,8.09,0,0,1,.9,3.84c.12,2.69,1.15,9.46,1.15,10.23,0,4.75-49.88,6.35-57.7-.57C70,154.8,77.68,147.4,77.68,147.4Z" fill="#d3ffcf"></path><path d="M144.56,186.88a24,24,0,0,1-1.54-4.52A34.61,34.61,0,0,0,141,177a45.35,45.35,0,0,0-3.15-6.44c-1.07-1.61-.45-2.83-.84-6.36s-1-3.67-2.6-4.74-3.91.76-5.9,1.22c-1.54.36-4.71.8-6.82,1.06-.59-7.69.24-2.37-1.06-12.1,2.69-.37,5.59-.85,5.6-.85,1.17-.26,3.13-.87,4-1,1.29-.24,1.83,0,2.33-.56.17-.18.38-.33.23-.61s-.15-.71-.64-.68a6.22,6.22,0,0,1-3-.17,5.61,5.61,0,0,0-2.31-.54c-1,.26-4.69,3.27-8.6,3.45-5.44.25-4-1.17-6.13.1-.8.48-1.11.63-3.48.51a8.14,8.14,0,0,1-3.74-1.16c-1-.49-5.62.93-5.64.93-3.86.5-3.67-.08-5.87-1.17-.67-.33-.95-.08-1.86.3-.23.09,1.3.72,3,1.41,1.56.62,3.27,1.32,4,1l.75,0-1,6.07.48,5.52v.09a16.63,16.63,0,0,1-4.11-.11c-3.14-.53-7.36-1.15-11.88-2.22s-10.18.77-10.72,1.53-4,10.27-4.52,11.65-.23,3-.23,4.59S66.19,181,66,182.28s-.15,3.91-.77,5.37-1.76,5.29-1.22,5.36c13.4,1.61,10.64-2.84,20.6.15s21.45-1.76,24.36-.31,21.07.08,22.75.54,16.17.84,16.17.31S145.09,188.18,144.56,186.88Zm-36.77-23.59c-1.54.15-4.52-.77-5.83-1.08a5,5,0,0,0-1.34,0c0-2.21,0-6,0-6l.94-5.47c2.75,0,3-.11,3.59.34s.55,0,4-.11a10.73,10.73,0,0,1,.65,3.26c-.14,1.1-.09,8.92-.09,8.92h.1C109.24,163.16,108.51,163.21,107.79,163.29Zm11.37-1.19a10.82,10.82,0,0,1-2.72.88c-1.13.06-2.83.07-4,.07l-.3-12.26,1.66-.1c2-.14,1.41-.62,2.72-.63.49,0,1.32-.08,2.28-.2A120.29,120.29,0,0,1,119.16,162.1Z" fill="#84d492"></path><path d="M76.92,146c1.32.43,1.66.11,2.4.77a14.29,14.29,0,0,1-2.4,1.7c-.91-.21-1.32-.57-1.12-1.43C76,146.37,76.29,145.77,76.92,146Z" fill="#d3ffcf"></path><path d="M168.36,107.33c.56,2.58.23,10.63.1,11.38-.84,4.56-5.21,5.85-8.39,5.3-5.52-1-9.26-5.36-21.46-15.45-.58-.47.46-.91.84-2.75a6.57,6.57,0,0,1,1.38-2.49c.61-.87,4.15-7,4.8-8,.23-.36.23-.37,4.4,3.06.52.43,3.48,14.79,5.53,13.41.85-.57-1-1.94-2.16-6.16-2.11-7.91-4.45-20.93-7.84-28.4-.34-.75-1.4-3.83-2.13-4.67-1.66-1.94-7.91-2.58-9.52-5.93-.47-1-.22-.64-1.83-5.65-.26-.83,0-.93.14-1.09s.68,0,.87.21a6.81,6.81,0,0,1,1.13,2c1.49,3.27.95,3.74,2,4,2.34.66,1.84-.75,4.28-.33a15.8,15.8,0,0,0,2.26.48c.38,0,.74-.59.1-.84a5.29,5.29,0,0,0-1.94-.64c-.68,0,0-1.6-.6-3.46-1.29-4.4-.43-4.25-1.7-5.36-.83-.72-2.08-1.9-3.08-1.79s-.71.62-1.93,3.06c-.83,1.65-1.79,1.79-1.47.61a21.3,21.3,0,0,0,1.16-4.35c.36-2,2-2.32,3-1.71,1.42.88,1.15.38,3.08,1.51,2.23,1.3.76-2.86,1.23-9.94a25.25,25.25,0,0,1,.46-4.05c0-.17.09-.76.51-.84s.63.33.69,1c.22,2.4-.76,9.2,1.08,15.15-.85,0-1.86-.24-1.61.56.05.15,1.26.33,1.29.33,3.73.52,6.16,2.5,6.48,1.77.22-.52-.38-.76-.94-1s-.14-.18.84-2.68c.73-1.88,2.5-10.15,3.56-10,.33,0,.6.17.59.65,0,1.88-2.39,6.92-2.93,11.53-.61,5.09.48,2.13-.5,12.14-.23,2.39,1.51,2.75,4.67,9.44,0,0,3.95,9,5.17,11.28C162.88,94.11,167.22,102,168.36,107.33Zm-19-48.07c.46-.7-6.37-3-8-2.64a.42.42,0,0,0,.25.8c3,.09,6.38,2,7.21,2.21C149.16,59.68,149.26,59.44,149.38,59.26Zm-.48,11.18c.83-1-3.53-.79-3.29-4.18.2-2.84,2.16-6.17,1.19-6.37-.33-.07-.54-.06-.8.73-1.59,4.77-3,8.63,2.19,10.05C148.29,70.69,148.52,70.87,148.9,70.44Z" fill="#c49e91"></path><path d="M147,55.44c0,.27.14.29-2.06-.5-.22-.08-.16-.1.18-3,0-.15.28-8.57,1-11.37.16-.58.16-.94.64-1.1C148.3,39,146.37,46.37,147,55.44Z" fill="#c49e91"></path><path d="M146.41,91.63c.44.37.25,0-2.38,3.94-1.92,2.91-2.83,5-4.22,7-2.76,3.94-2.53,7.29-3.62,5.78-1.42-2-3.95-3.51-5-5-.56-.77.07-.91-.51-3.61-.84-4-.13-4.76-1.2-8.53-.14-.46-.94-.59-1,0,0,.39.28,1.67.56,3.63a27.11,27.11,0,0,0,.55,5.24c.93,4.44-1,9.34-.89,14.51.21,8.81-.56,10-.26,13.87.25,3.27.49,1.17,1.89,6.82.07.27-13.85-7.48-28.15-25.81-1.84-2.35-25.69-32.15-25.63-32.17,1.65-.56,2.08-.87,2.85-.16C83,80.62,85.57,84,94.79,86.55c19,5.17,30.41-10.76,32-10.54,4,.59,4.47.26,6.19,1.91,3.53,3.39,3.23,4.59,8.11,9.25C142.17,88.24,144.91,90.38,146.41,91.63Zm-20.48,21.79c.2-.09.54-.34.34-.61-1.1-1.44-3.08,2.9-12.13,1.34-6.13-1.06-5.64-2.07-7.35-2.13-.46,0-.56.16-.58.35a.46.46,0,0,0,.32.44c2.33.77,2.66,2,8,2.62C122.07,116.27,124.55,114,125.93,113.42Z" fill="#fff59e"></path><path d="M134.34,156.3c3.93.95,9.7-2.39,12.9-3.93-.74-3.13-2.42-9.41-5.16-11.09-2.17-1.33-3-2.15-4.18-2.33a13.22,13.22,0,0,0-2.93-.44c-2.09.13-1.94.11-1.87.52a1.37,1.37,0,0,1-.15,1.35c-.21.25.92,1.88.08,4.33-.15.42.17,0,.81,1.58.56,1.31-.75,1.73-.84,2.07s.13.49.18.75C133.56,150.81,133.41,156.07,134.34,156.3Z" fill="#e3b27d"></path><path d="M147.75,155.79c-.09,0-1.94.75-2.44,1.06-2.37,1.45-2.56,1-5.65,2a6.82,6.82,0,0,1-2.69.4c-.71,0-1.22.08-1.44-.14a.49.49,0,0,1-.13-.38c0-.91.95.08,4.61-1.12,1.58-.51,2.77-.49,4.47-1.61a29.54,29.54,0,0,1,2.86-1.25c.38-.17.44-.38.56-1.27.06-.45-.29-.23-3.16,1.33-2.69,1.46-4.14,1.34-5.62,2.18-.88.49-3.41.48-4.49.39-.35,0-.7-.24-.57.15.24.73,0,1,.47,1.24a4.44,4.44,0,0,1,2.79,3.85c.15,2,.51,2.93.5,4.43,0,3.5,1.22,2.72,3.19,8.2,1.13,3.14,1.2,3,1.4,3a3.63,3.63,0,0,0,3.29-1.41c3.52-5.53,2.88-5.23,2.78-17.12C148.47,159.24,149.05,155.24,147.75,155.79Z" fill="#e3b27d"></path><path d="M127.38,134.9a74.48,74.48,0,0,1-8-5.85c-11.63-9.87-14.48-14.75-21.9-23.68-10.57-12.73-18.88-24.62-22-27.46-.76-.68-.76-.68-1.22-.48s-.66.32-.48.53,1,1,1.33,1.35c23.87,28.59,28.25,40.19,47.77,54.4,9.29,6.76,9.47,7.27,9.4,5.52S132.09,138.52,127.38,134.9Z" fill="#e3b27d"></path><path d="M131.87,141.25c.36.95.66,2.92-.3,3.27-1.44.53-2.39-.37-4.18-.63s-5.13,4-10.78,3.47c-.18,0-.82,0-.82,0-2.21-.41-2.62-.81-4,0a2.35,2.35,0,0,1-1.67.62,7.05,7.05,0,0,1-4.5-.93c-2-1.09-5.14,1-8.87.94A5.78,5.78,0,0,1,94,146.81c-1.71-1.05-2.88,1.1-5.44.13-1.38-.53-3.44-.27-5.3-.62a6.74,6.74,0,0,0-2.28,0c-.63.27-.21-.44-1.56-1-.44-.18-2-.23-2.76-.85-.92-.75.62-1.33.83-2.75a5.4,5.4,0,0,1,.42-1.94c1.3-2.17,1.27-2.63,1.33-3.52a8.53,8.53,0,0,1,.29-3.29c.6-1.13-.87-5.33-1.13-6.1-2.1-6.15-1.39-2.65-2.36-8.92-.76-4.93-1.46-4.93-1.52-7.52s.67-2.66,0-4.3a5.29,5.29,0,0,0-.79-1,2.1,2.1,0,0,1-.15-2.58,12.83,12.83,0,0,0,1.83-6.22c.25-1.71.39-3.45-.29-3.42-1.17,0-.09,3.41-1.44,7.09-.67,1.84-2.15,2.88-3.3,4-3.13,3-1.77,3.27-3.62.16-2.66-4.47-2.48-4.39-3.69-5.64-2.1-2.18-1.58-1.41-2.58-2.81a10.6,10.6,0,0,0-3.86-3.36c-.24-.07,3.61-4,5.18-5.57,6.54-6.29,6.37-3.66,8-6.35.77-1.25,1.17-1,2.9-1.77,2-.82,29.11,39.44,41.73,49.76C122.28,134.76,131.84,141.19,131.87,141.25Zm-35.09-28.7a.47.47,0,0,0,.45-.47c0-1.07-1.91-.16-3.31,0-8.07.69-7.26.48-12.18-1a11.36,11.36,0,0,1-2.62-1.47c-1-.53-2,2.79,9.8,4.05,0,0,4.57-.52,4.59-.52A22.55,22.55,0,0,0,96.78,112.55Z" fill="#fff59e"></path><path d="M129.48,32.5c-.75,1.3,2.23,2.67,1.71,4.9-.37,1.61-1.67,1.78-2.48,2.31s-.94,1-.13,2.12a1.93,1.93,0,0,1,.13,2.39c-1.1,1.21-2.74.5-2.78,1.74-.05,1.57.73,2.14-.44,2.78s-2.52-.45-3,.08,0,.85.13,1.45c.34,1.18-.49.84-2.26,1.81-.86.48-1.24,1.71-.34,3.16,1.45,2.35,1.53,2.49-.41,3.72-3.44,2.2.88,3.93-.49,5.7s-1.31,2.58-1.24,3-.32.46-.61-.16a2.17,2.17,0,0,1,.17-2.6,2.19,2.19,0,0,0,.51-1.78c-.06-.49-.68-1-1.36-1.49a1.75,1.75,0,0,1-.2-2.19c.88-1.35,1.36-1.15,1.57-2,.17-.68-.68-1.35-1.17-2.46-.13-.2,4.28-4.26,4.6-7.79a2.86,2.86,0,0,0-1-2.77c-.18-.11-.28-.17-.23-.49,2.54-16.85,3.37-21.51,3.63-22.75.13-.65,0-.91-.4-1.07s-.75.08-.8-.52c-.32-3.34-4.55-5.12-7.9-5.12a4.76,4.76,0,0,0-4.62,2.16c-.21.42-.24.67-.51.39a4.18,4.18,0,0,0-3.8-1.16c-1.78.24-1.84,1-1.91.37-.55-5.19-10-5.68-12.72-1.42-.36.57,0,1-.89,1.08-1.57.08-.88.54-1.4,18.9-.32,11.3.2,5.51-1.07,12.11-.8,4.12.78,5.61-.32,7.64a9.78,9.78,0,0,1-1.08,1c-.94,1.06.8,1.74.7,2.87a3.07,3.07,0,0,1-1.32,1.72.18.18,0,0,1-.28-.2c.54-1.84,0-2.09-1.1-3.31-.93-1-.15-1.55,1.17-2.61.88-.7.38-1.21-.15-1.62-2.39-1.85-1.73-1.85-.64-3.94.49-.94.25-1.31-.19-1.75s-1.45-1.12-1.72-1.9A3.12,3.12,0,0,1,83.23,42c1-1.32-1.31-.37-2.29-1.67-.82-1.09.26-2.09.58-2.36.64-.54.42-1.07-.1-1.05-2.93.11-3.5-2.26-1.56-4,.61-.53.9-.93,0-1.31-1.79-.72-1-1.2,0-1.89.8-.5,1-1-.21-1.4-2.25-.71-2-2.71-.52-3.83s2,.21,2.76-.16c.56-.27.06-1.24-.31-1.51-2-1.49-.74-2.6-.11-2.63,1.33-.08,1.25.1,1.93-.07,1.84-.45.31-1.88.19-3.08-.06-.55.22-1.64,1-1.42.54.14,1.8.72,1.61-.4a2.37,2.37,0,0,1,1.68-2.91c.6-.13.6.2,1.53.82s1.87.25,1.89-.39c0-1.42-.55-3,2.35-4.31a2.85,2.85,0,0,1,2.91.76c.41.45.65.81,1.08.13a5.3,5.3,0,0,1,1.59-2.23,4.51,4.51,0,0,1,3.74-1,3,3,0,0,1,2.55,2.36c.09.35,0,.64.45.76.3.08.61-.37.66-.47a2.57,2.57,0,0,1,2.19-1.41c1.73.23,1.56,1.76,1.83,2,.9.84.36-2.06,4.35-1.43a3.86,3.86,0,0,1,2.89,2.61c.52,1.17-.18,1.12.18,2,.24.61.69.4,1.15-.09,1.39-1.52,3.24-1.22,2.88.06a3.54,3.54,0,0,0-.36,1.41.52.52,0,0,0,.87.36c1.27-1.38,5.38-.15,4.49,2.92-.25.88-.56,1.54.06,1.81,1.69.73,2.27.79,3.3,2.13a3.24,3.24,0,0,1,.18,4c-.13.19-.85.63-1.12,1a.56.56,0,0,0,.35.88c1.35.16,2.6,2.4,1.08,4.16C130.16,32.11,129.88,31.8,129.48,32.5Z" fill="#585858"></path><path d="M120.86,24.59c2.2-2,1.75-7.22-1.86,18.75,0,.23-.11.34-.35.36s-.65.15-1-.08a1,1,0,0,1-.36-1.42c.42-.71,1.56-.94.1-1.78-1.17-.67.26-1.63.54-2.34.65-1.64-2.46-.53-2.54-2.11-.12-2.16,2.57-1.13,2-3.88-.19-.89-.95-.89-2.24-1.19-.57-.13-.85-.59-1.16-1-.61-.88,1-2.61.23-3.15s-1.91,1.89-3.16,1.12c-.52-.31-1.2-.63-1-1.21.41-1.32-.44-1.6-1.07-1a1.32,1.32,0,0,1-2.14-.8c-.21-1.21-1-.92-1.25-.24-.37,1.21-1.62,2.37-2.58,2a2,2,0,0,1-1.4-1.31.65.65,0,0,0-1.18.08c-.58,1.17-.73,1-1.7,1.07-.8.06-1.25-.47-1.69-1.12a.62.62,0,0,0-1.17.25A3.08,3.08,0,0,1,94.62,29a5.38,5.38,0,0,1-2.4.65c-1.15.14-1.09-.74-1.83.05-.12.14,0,.06-.26.22-.06-.35-.07-12.07.28-12.06s-.28.89,1,2.88c3,4.5,9.42,2.68,11.33-.68.78-1.38,1.14-2.37,2.46-2.79a3.23,3.23,0,0,1,3.55,1,13.22,13.22,0,0,1,.82,2.14C110.68,25.11,116.78,28.38,120.86,24.59Z" fill="#585858"></path><path d="M124.3,76.31c-2.55,2.77-4.13,3.41-7.32,5.39a20.37,20.37,0,0,1-7.69,3.6,24.48,24.48,0,0,1-5.8,1c-1.55,0-1.5,0-1.5,0a31.13,31.13,0,0,1-17.64-5.89c-4.78-4.34-4.5-3.34-2.1-4,8.14-2.13,8.45-2,10-7.89A31.63,31.63,0,0,0,93.47,62c.79.49,3.61,3.45,7.23,2.9,4.19-.65,6.24-2.54,7-2.81.07.93-1.69,5.84-.57,10C108.38,76.63,120.1,75.32,124.3,76.31Zm-22.77,2.31c.8,0,4.84-.59,4.67-1.37-.21-1-1.92.65-5.07.52-.35,0-.49,0-1.84-.71-2.21-1.1-2.69-.68-6.33.27-1.33.35-.83,1,.11.74s3.75-1.12,4.64-.74C100.43,78.5,100.73,78.69,101.53,78.62Z" fill="#c49e91"></path><path d="M119.37,44.87c1.18.55,1.11,2.1.67,3.31a15.86,15.86,0,0,1-3,4.77,1.87,1.87,0,0,1-2.52.36c-.21-.12-.5-.12-.78.24-1.32,1.68-1.76,4.84-7.92,8.34-2.7,1.53-6,2.62-8.84,1.3-3.21-1.5-4.79-4.68-6.42-7.49-3.43-5.93-1.29-9.15-.87-13.15.22-2-.1-4.44.1-7,.11-1.43.11-3.35.65-4.45.13-.25.25-.46.46-.49.7-.08,1,.3,2.26.06a4.78,4.78,0,0,0,3-1.43c1.26-1.53.73-2.15,1.23-1.91a3.07,3.07,0,0,0,3.57-.47c.44-.37.13.35,1.77.93,1.18.41,2.67-.54,3.31-1.42.36-.52.46,1.06,2.4.77.89-.13.29,1.6,2.88,2.07a3.4,3.4,0,0,0,1.34-.26c.6-.25-.69,1.15,1.47,2.78a5.08,5.08,0,0,0,1.83.58c.38.08.6.49.13.81-2.84,1.91-2,4.69-.17,5,.27,0,.55.07.38.27a2.31,2.31,0,0,0,0,2.82c.39.41-.28.48-.2,2,.07,1.2,1,1.1.53,1.64-.32.39,0,1.07.44.84C117.42,45.46,118.17,44.32,119.37,44.87Zm-.05,2.47c.33-.14.42-.93-.12-1.43-.78-.73-2.23.54-2.75,2.09s.71,1.39.08,2.21c-.37.48-.92.92-.47,1.33s1-.3,1.39-.74a1.38,1.38,0,0,0,.34-1.12c-.08-.56-1.21-.94.27-2.66.31-.36.58-.4.76-.08S119.15,47.42,119.32,47.34Zm-6.95-7.06c.36.46,1.12.19.91-.43a4.46,4.46,0,0,0-1.83-2.21,3.68,3.68,0,0,0-2.74-.46c-2.89.15-2.62,2-1.38,1.45C110.24,37.44,111.3,38.92,112.37,40.28ZM107.78,53.6c-.06.64.77,1.36,1.11-.38-.31-3-2.86-2.68-2.08-1.68.27.35-.71.39-1.15.4a28.85,28.85,0,0,1-9.14-1.3c-1.39-.39-1.5-.28-.61,1.66,1.82,4,2.91,7.45,6.36,5.45,2.1-1.21,4.42-4.08,5.54-4.76C107.86,53.56,107.82,53.27,107.78,53.6Zm.36-10.37c.17-.85,0-1.27-.32-1.4a.67.67,0,0,0-.81.59C106.69,44.05,108,44,108.14,43.23Zm-4.54,5.15c1.16-.25,1.34-1.82.59-1.77-.32,0-.33.2-.44.36s-.27.5-.66.35c-.88-.34-.84-1.56-1.54-.6a1.61,1.61,0,0,1-2.88-.36c-.27-1.22.43-1.74,1.31-2.56a2.31,2.31,0,0,0,.81-2.07c0-.38-.4-.59-.68-.21a3.57,3.57,0,0,1-1.21,1.71c-3.42,2.72,0,7.09,2.9,5,.21-.15.29-.32.47-.19A1.59,1.59,0,0,0,103.6,48.38Zm-4-13.15c.64-1-1.72-2.3-4.43-1.32-2.24.8-2.83,3.09-1.59,2.73.3-.09.19-.9,1.74-1.65C97.81,33.78,99.06,36.06,99.6,35.23Zm-1.85,5.48c.06-.62-.37-1.11-.8-1s-.51.32-.53.92.32.93.54,1C97.43,41.7,97.72,41.17,97.75,40.71Z" fill="#c49e91"></path><path d="M117.88,17.79c.13,1.63-1.34,1.54-1.06,3.57.53,3.71.94,3.69.12,3.65-1.74-.11-1.38.37-2-3a2.61,2.61,0,0,1,.29-2.27c1.76-2.73-.61-4.45,1.14-4.06C117.45,16,117.74,15.92,117.88,17.79Z" fill="#ffffff"></path><path d="M100.5,52.61c4.54.86,6,.06,5.52.49-4.85,4.44-6,6.19-8.48.18C96.82,51.51,95.76,51.72,100.5,52.61Z" fill="#ffffff"></path><path d="M97.73,13c1.47.17.37,0,.06,2-.52,3.32,1.61,1-1.06,6.9-.15.33-.2.3-1.69.06-1.08-.17,2.14-3.61.95-5.68-.59-1,0-1.91.43-2.94C96.53,13.09,96.46,13.18,97.73,13Z" fill="#ffffff"></path><path d="M93.2,152.31c2.6.75,3.09.71,3,1.08-.27.9-1.67.77-3.7.38-2.72-.52-5.68-1.4-9-.79-.54.1-.5,0-2.09-.13a.43.43,0,0,0-.33.77,25,25,0,0,0,3.63.89c1.2.22,1.8,0,2.57.4,2.1,1.22,2.33.56,3.44,1.27,2.84,1.81,4.16,1.6,3.42,2.27s-1.56.48-4.75-1.1c-2.13-1.06-4.77-.52-8.23-1.38-.91-.23-1.41.61-.77.85,4.66,1.71,4.16.8,6,2.15,1.27,1,1.57.75,3.26,2,.43.32-.14.64-.5.65-1.53,0-4.86-1.86-5.73-1.86a11,11,0,0,1-2.68-.39c-1.29-.31-5.88,3.45-8.63,4-2.36.5-4.78-1.28-5-2.14,0-.16-.09-.15.9-2.95.54-1.53,1.22.82,3.82-1.48a4.36,4.36,0,0,0,.93-2.44c0-.34.43-.75,1.56-1.8s2.1-2.06,2.92-2.76c4.27-3.66,4-2.64,8.41-2.29,3.14.24,2,.15,8.75,2.87.48.19,0,1.17-.86,1a31.15,31.15,0,0,0-11.35-2c-.51,0-.89.37-.83.6C81.61,151,82.8,149.33,93.2,152.31Z" fill="#c49e91"></path><path d="M68.28,151.8c2.7.54,3.9,3.35,1.47,3.87C66,155.43,65.87,151.32,68.28,151.8Z" fill="#ffffff"></path><path d="M66.59,106.08a13,13,0,0,1-1.94,2.25c-1.52,1.37-1.24,1.5-1.62,1.15-2-1.88-3.31-4.85-7.85-8.43-2.78-2.2-3.33-.58.21-4.75,2-2.34,1.57-2.44,2.1-2.07,1.79,1.24,2.15,2.72,4.59,5,1.46,1.34,1.42,1.87,2.37,3.43C65.16,103.77,66.31,105.59,66.59,106.08Z" fill="#c49e91"></path><path d="M63.39,148.41s2.55,2,2.28,2.32a4.14,4.14,0,0,0-.3,5c.72,1.08-.28,1.09-.67,3.8,0,.37.28.39-4.39-2.74-3.92-2.62-18.43-13.52-21.48-17.11-5.82-6.84-10.33-11-5.38-17.56,4.32-5.75,12.46-15.35,12.88-15.61,4.12,1.45,8.78,8.07,10.46,9.57.28.25.56.14-1.48,2.06,0,0-4.7,4.74-6.79,7.5-1.34,1.77-2.68,2.28-2.41,4C46.41,131.54,62,147,63.39,148.41Z" fill="#c49e91"></path><path d="M50.69,101.52c4.66,2.29,10.88,10.1,10.51,10.46-2.51,2.46-2.21,2.42-2.56,2-1.64-1.81-6.69-7.74-9.39-9.34-.89-.53-1.14-.41-.94-.62C50.92,101.22,50.14,102,50.69,101.52Z" fill="#c49e91"></path><path d="M168.12,102.66c-1-2.82-13.67-28.47-13.68-28.49-2.37-4.53-3.5-3.74-3.08-7.24.9-7.65-.29-6.85.44-11.31a77.69,77.69,0,0,1,2.49-10.13c.52-1.92.19-2.89-1.21-3-1-.09-1.62.86-2.26,2.64-.95,2.61-1.81,6.48-2.67,8.5-.23.54.26-11.86.24-12.58a4,4,0,0,0-.42-2.17,1.33,1.33,0,0,0-1.43-.4c-1.33.36-1.43,1.82-1.78,4.36-.54,4.06-.66,10.85-.84,9.83-.82-4.55-.75-5.84-.82-11,0-.69.08-1.67,0-2.53-.1-1.22-.74-1.78-1.58-1.66-.68.09-1.05.37-1.36,1.36-1.28,3.93-.32,13.46-.76,13.09a7.67,7.67,0,0,0-1.55-.68c-1.46-.74-2.21-1.2-3.52-.64-2,.85-1.71,1.46-2.43,4s-1.16,3.24-.83,4.32c.12.36-.39,1-.11,1.78,2.78,8.21.45,7.79,10.46,11.68,1.62.64,1.62,1.4,2.78,4.41,1.74,4.53,2.57,7.09,3,8.74s2.78,9,2.72,11.22a22.67,22.67,0,0,1-1.88-1.47c-.31-.24,0-.48.11-1.68a2.63,2.63,0,0,0-.57-2.36c-.88-.81-2.3-2.12-4.92-4.27C135.3,81,136,74.88,127,75c-.4,0-1.23-.5-2,.2-.26.25-4.77-.74-7.5-.57-.52,0-7.91-.38-8.94-2.12-1.16-1.93-.72-5.51-.43-6.88.79-3.68.62-4.57,1.65-5.25A16.55,16.55,0,0,0,114,54.87c.1-.23.15-.59.32-.5a2.65,2.65,0,0,0,1.25.41c.38,0,.35,1,1.39,2.17.16.17.09.15-.7.86a3.12,3.12,0,0,0-.11,4.63c.94.73,1.06.84.84,1.32a3.47,3.47,0,0,0-.7,3.67,4.57,4.57,0,0,0,1,1.31c.48.55,1.67.65,1.45-.27-.75-3.25,3.39-2.31.66-7.06-1.23-2.15,4.73-1.4,2.06-6-.63-1.08-1.45-1.94-.3-2.43s1.48-.45,2.14-1.07c.95-.9,0-2,.62-1.92,2.22.45,4.09-1.25,3.07-3.26-.64-1.28,2.88-.34,3-3.41.11-2.43-1.54-2.41-.46-2.92a3.74,3.74,0,0,0,2.32-1.73c1.4-2.8-.82-4.79-1.41-5.65,2.13-1.22,2.76-2.91,2.13-4.94-.47-1.54-1.55-1.51-1.08-2.05a4.47,4.47,0,0,0,.94-3.18C131,17.49,127.53,19,128,18a3.73,3.73,0,0,0-1.44-4.74,5.15,5.15,0,0,0-3.18-.69c-.21-.24.15-2.06-1.85-2.21s-2.08.88-2.23.3a6.45,6.45,0,0,0-2.67-3.4,5.28,5.28,0,0,0-2.77-.53c-2.52.06-2.34,1-2.9.44-2.33-2.41-4.45.43-4.67-.12-.74-1.85-6.14-3.71-9,.66-.17.26-.27.41-.43.24a3.66,3.66,0,0,0-3.56-.55c-4.9,2-2.22,5.29-3.23,4.68s-1.71-1.28-2.81-.72c-2.82,1.43-1.54,3.51-2.33,3.22-1.44-.54-2.81,1.36-2.4,2.85.64,2.33.64,1.21-1.17,1.49a2.3,2.3,0,0,0-2,2.38c.08,1.48.79,1.66.29,1.72a3.62,3.62,0,0,0-2.51,4.69c.55,1.57,1.84,1.39,1.36,1.76a1.68,1.68,0,0,0,.11,2.93c.15.1.15.16,0,.27a3,3,0,0,0,1.26,5.12c.39.09-.08.11-.24,1.48A2.44,2.44,0,0,0,81.8,42c.77.05-1.73,2.75,1.67,5.08,1.24.85-.31,1.43-.53,2.88-.28,1.77.49,2.1,1.7,3.06.61.48,0,.48-1,1.36a1.72,1.72,0,0,0-.36,2.38A9.82,9.82,0,0,0,84.36,58c.72.84.35,1.45,0,2.56-.18.65.36,1.06.82.82,2.38-1.22,3.8-2.73,2.19-4.86-.47-.63.58-.33,1.16-2.19,0-.05.08-.15.14,0,2.11,4.56,3.66,5.7,3.65,7.55,0,2.08-1.27,9-2.85,10.67-1.4,1.48-3.85,1.94-9.41,3.23-1,.23-.71-.6-2.23-.11-2.49.79-2.52,1-2.85.79s-.58-.15-2.12.45c-.61.24,0,.32-1,.76-1.52.67-2.34.87-3.31,2.6s-1.58-1-11.68,10c-1.39,1.5-2.09,1.85-2,2.89.1,1.24.72,1.45.14,2-2.19,1.93-14.21,15.83-16,18.1-10.49,13-12.92,13.81-.49,28.06,2.15,2.47,22.62,18.56,25.77,19.52.55.17.08.79,1.34,1.35.84.37.55-.13,1.61.87,2.1,2,2.81,1.29,2.62,1.79-.8,2.11-3.47,8.78-3.22,10.77.33,2.6-.63,3.47-1,5.31-.5,2.19-.16,3.26-.56,5.4-.35,1.82-.62.85-1.43,6.07-.17,1.12,1,1.3,1.16.56a22.06,22.06,0,0,1,.76-4,12.88,12.88,0,0,0,1-5c.4-5.5,1.65-4.36,1.29-8.06-.18-1.89.32-2.46,3.07-10.87.15-.46.44-.18,1.23-.35,3.85-.83,7.38-4.33,8.24-4.16,6.14,1.28,1.16-.22,7.25,2.14,2.28.89,3-.66,3.64-.56,0,0,8.66,1.16,9.26.71.39-.29.25.18,2.72.39,1.2.11,1.81.46,3,.56s3.14-.35,3.65-.24a14.1,14.1,0,0,0,4.07-.17,17.49,17.49,0,0,0,4.35-.15c1.32-.28.73-.69,1.5-.68.59,0,4.53-.45,4.56-.45a41.55,41.55,0,0,0,9.15-2.44c.32,0,.6.43,1,.57a2.73,2.73,0,0,1,1.27,1.35c.64.87.34,1.63.66,3.17a23,23,0,0,1,.3,4c.24,2,.56,1.32,2.54,5.56.47,1-.4-.81,3,7.53,2.33,5.75-1.14-.87,4.77,11.81.3.64.49,1.69,1.27,1.44,1.39-.43-3-6.54-3.95-10.86s-2.39-4.6-1.14-4.67a4.55,4.55,0,0,0,3.5-1.75c2-3.25,3.06-4,3.12-10.36,0-3.28-.22-7.43,0-8.82.44-2.71-1-3.32-.78-4.17.23-1.15.17-1-.39-2.24-1.17-2.65-2.35-9.86-5.85-11.93-3.16-1.87-3.2-2.27-4.33-2.39-1.56-.17-2.42-.64-4.53-.31-.74.11-1,.18-1.22,0-1.15-1-1.15-1.11-1.19-1.52-.24-2.7-1.83-5.69-1.93-6.77a67,67,0,0,1,.21-7.89c.43-6.07-.35-5.59.21-10.19.25-2,.52-3.14.86-6,0-.2-.24-.49,2.52,2,2,1.77,4,5,5.49,3.46.16-.16.28-.12.43,0,1.33,1.2,2.09,1.69,3.48,2.88,4.88,4.16,12.61,12.51,19,11.94,8.09-.71,8-5.93,8-14A21.69,21.69,0,0,0,168.12,102.66Zm-23-50.73c0-.15.28-8.57,1-11.37.16-.58.16-.94.64-1.1,1.49-.51-.44,6.87.21,16,0,.27.14.29-2.06-.5C144.74,54.86,144.8,54.84,145.14,51.93ZM87.77,46.81c-.8,4.12.78,5.61-.32,7.64a9.78,9.78,0,0,1-1.08,1c-.94,1.06.8,1.74.7,2.87a3.07,3.07,0,0,1-1.32,1.72.18.18,0,0,1-.28-.2c.54-1.84,0-2.09-1.1-3.31-.93-1-.15-1.55,1.17-2.61.88-.7.38-1.21-.15-1.62-2.39-1.85-1.73-1.85-.64-3.94.49-.94.25-1.31-.19-1.75s-1.45-1.12-1.72-1.9A3.12,3.12,0,0,1,83.23,42c1-1.32-1.31-.37-2.29-1.67-.82-1.09.26-2.09.58-2.36.64-.54.42-1.07-.1-1.05-2.93.11-3.5-2.26-1.56-4,.61-.53.9-.93,0-1.31-1.79-.72-1-1.2,0-1.89.8-.5,1-1-.21-1.4-2.25-.71-2-2.71-.52-3.83s2,.21,2.76-.16c.56-.27.06-1.24-.31-1.51-2-1.49-.74-2.6-.11-2.63,1.33-.08,1.25.1,1.93-.07,1.84-.45.31-1.88.19-3.08-.06-.55.22-1.64,1-1.42.54.14,1.8.72,1.61-.4a2.37,2.37,0,0,1,1.68-2.91c.6-.13.6.2,1.53.82s1.87.25,1.89-.39c0-1.42-.55-3,2.35-4.31a2.85,2.85,0,0,1,2.91.76c.41.45.65.81,1.08.13a5.3,5.3,0,0,1,1.59-2.23,4.51,4.51,0,0,1,3.74-1,3,3,0,0,1,2.55,2.36c.09.35,0,.64.45.76.3.08.61-.37.66-.47a2.57,2.57,0,0,1,2.19-1.41c1.73.23,1.56,1.76,1.83,2,.9.84.36-2.06,4.35-1.43a3.86,3.86,0,0,1,2.89,2.61c.52,1.17-.18,1.12.18,2,.24.61.69.4,1.15-.09,1.39-1.52,3.24-1.22,2.88.06a3.54,3.54,0,0,0-.36,1.41.52.52,0,0,0,.87.36c1.27-1.38,5.38-.15,4.49,2.92-.25.88-.56,1.54.06,1.81,1.69.73,2.27.79,3.3,2.13a3.24,3.24,0,0,1,.18,4c-.13.19-.85.63-1.12,1a.56.56,0,0,0,.35.88c1.35.16,2.6,2.4,1.08,4.16-.83,1-1.12.65-1.51,1.35-.75,1.3,2.23,2.67,1.71,4.9-.37,1.61-1.67,1.78-2.48,2.31s-.94,1-.13,2.12a1.93,1.93,0,0,1,.13,2.39c-1.1,1.21-2.74.5-2.78,1.74-.05,1.57.73,2.14-.44,2.78s-2.52-.45-3,.08,0,.85.13,1.45c.34,1.18-.49.84-2.26,1.81-.86.48-1.24,1.71-.34,3.16,1.45,2.35,1.53,2.49-.41,3.72-3.44,2.2.88,3.93-.49,5.7s-1.31,2.58-1.24,3-.32.46-.61-.16a2.17,2.17,0,0,1,.17-2.6,2.19,2.19,0,0,0,.51-1.78c-.06-.49-.68-1-1.36-1.49a1.75,1.75,0,0,1-.2-2.19c.88-1.35,1.36-1.15,1.57-2,.17-.68-.68-1.35-1.17-2.46-.13-.2,4.28-4.26,4.6-7.79a2.86,2.86,0,0,0-1-2.77c-.18-.11-.28-.17-.23-.49,2.54-16.85,3.37-21.51,3.63-22.75.13-.65,0-.91-.4-1.07s-.75.08-.8-.52c-.32-3.34-4.55-5.12-7.9-5.12a4.76,4.76,0,0,0-4.62,2.16c-.21.42-.24.67-.51.39a4.18,4.18,0,0,0-3.8-1.16c-1.78.24-1.84,1-1.91.37-.55-5.19-10-5.68-12.72-1.42-.36.57,0,1-.89,1.08-1.57.08-.88.54-1.4,18.9C88.52,46,89,40.21,87.77,46.81Zm29.63-6.39c-1.17-.67.26-1.63.54-2.34.65-1.64-2.46-.53-2.54-2.11-.12-2.16,2.57-1.13,2-3.88-.19-.89-.95-.89-2.24-1.19-.57-.13-.85-.59-1.16-1-.61-.88,1-2.61.23-3.15s-1.91,1.89-3.16,1.12c-.52-.31-1.2-.63-1-1.21.41-1.32-.44-1.6-1.07-1a1.32,1.32,0,0,1-2.14-.8c-.21-1.21-1-.92-1.25-.24-.37,1.21-1.62,2.37-2.58,2a2,2,0,0,1-1.4-1.31.65.65,0,0,0-1.18.08c-.58,1.17-.73,1-1.7,1.07-.8.06-1.25-.47-1.69-1.12a.62.62,0,0,0-1.17.25A3.08,3.08,0,0,1,94.62,29a5.38,5.38,0,0,1-2.4.65c-1.15.14-1.09-.74-1.83.05-.12.14,0,.06-.26.22-.06-.35-.07-12.07.28-12.06s-.28.89,1,2.88c3,4.5,9.42,2.68,11.33-.68.78-1.38,1.14-2.37,2.46-2.79a3.24,3.24,0,0,1,3.54.95,13.63,13.63,0,0,1,.83,2.16c1.07,4.75,7.17,8,11.25,4.23.89-.82,1.35-2.16,1.34-1.75,0,.6-1,5-3.2,20.5,0,.23-.11.34-.35.36s-.65.15-1-.08a1,1,0,0,1-.36-1.42C117.73,41.49,118.85,41.26,117.4,40.42ZM96,16.31c-.59-1,0-1.91.43-2.94.11-.28,0-.19,1.31-.34,1.47.17.37,0,.06,2-.52,3.32,1.61,1-1.06,6.9-.15.33-.2.3-1.69.06C94,21.82,97.18,18.38,96,16.31Zm20.43-.6c1,.24,1.32.21,1.46,2.08.13,1.63-1.34,1.54-1.06,3.57.53,3.71.94,3.69.12,3.65-1.74-.11-1.38.37-2-3a2.61,2.61,0,0,1,.29-2.27C117,17,114.67,15.32,116.42,15.71Zm-25.83,40c-3.43-5.93-1.29-9.15-.87-13.15.22-2-.1-4.44.1-7,.11-1.43.11-3.35.65-4.45.13-.25.25-.46.46-.49.7-.08,1,.3,2.26.06a4.78,4.78,0,0,0,3-1.43c1.26-1.53.73-2.15,1.23-1.91a3.07,3.07,0,0,0,3.57-.47c.44-.37.13.35,1.77.93,1.18.41,2.67-.54,3.31-1.42.36-.52.46,1.06,2.4.77.89-.13.29,1.6,2.88,2.07a3.4,3.4,0,0,0,1.34-.26c.6-.25-.69,1.15,1.47,2.78a5.08,5.08,0,0,0,1.83.58c.38.08.6.49.13.81-2.84,1.91-2,4.69-.17,5,.27,0,.55.07.38.27a2.31,2.31,0,0,0,0,2.82c.39.41-.28.48-.2,2,.07,1.2,1,1.1.53,1.64-.32.39,0,1.07.44.84.31-.15,1.06-1.29,2.26-.74s1.11,2.1.67,3.31a15.86,15.86,0,0,1-3,4.77,1.87,1.87,0,0,1-2.52.36c-.21-.12-.5-.12-.78.24-1.32,1.68-1.76,4.84-7.92,8.34-2.7,1.53-6,2.62-8.84,1.3C93.8,61.69,92.22,58.51,90.59,55.7ZM82.25,76.38c8.14-2.12,8.45-2,10-7.89A31.63,31.63,0,0,0,93.47,62c.79.49,3.61,3.45,7.23,2.9,4.19-.65,6.24-2.54,7-2.81.07.93-1.69,5.84-.57,10,1.23,4.57,12.95,3.26,17.15,4.25-2.55,2.77-4.13,3.41-7.32,5.39a20.37,20.37,0,0,1-7.69,3.6,24.48,24.48,0,0,1-5.8,1c-1.55,0-1.5,0-1.5,0a31.13,31.13,0,0,1-17.64-5.89C79.57,76,79.85,77,82.25,76.38ZM61.86,86.76c6.54-6.29,6.37-3.66,8-6.35.77-1.25,1.17-1,2.9-1.77,2-.82,29.11,39.44,41.73,49.76,7.77,6.36,17.33,12.79,17.36,12.85.36,1,.66,2.92-.3,3.27-1.44.53-2.39-.37-4.18-.63s-5.14,4-10.78,3.47c-.18,0-.82,0-.82,0-2.21-.41-2.62-.81-4,0a2.35,2.35,0,0,1-1.67.62,7.05,7.05,0,0,1-4.5-.93c-2-1.09-5.14,1-8.87.94A5.78,5.78,0,0,1,94,146.81c-1.71-1.05-2.88,1.1-5.44.13-1.38-.53-3.44-.27-5.3-.62a6.74,6.74,0,0,0-2.28,0c-.63.27-.21-.44-1.56-1-.44-.18-2-.23-2.76-.85-.92-.75.62-1.33.83-2.75a5.4,5.4,0,0,1,.42-1.94c1.3-2.17,1.27-2.63,1.33-3.52a8.53,8.53,0,0,1,.29-3.29c.6-1.13-.87-5.33-1.13-6.1-2.1-6.15-1.39-2.65-2.36-8.92-.76-4.93-1.46-4.93-1.52-7.52s.67-2.66,0-4.3a5.29,5.29,0,0,0-.79-1,2.1,2.1,0,0,1-.15-2.58,12.83,12.83,0,0,0,1.83-6.22c.25-1.71.39-3.45-.29-3.42-1.17,0-.09,3.41-1.44,7.09-.67,1.84-2.15,2.88-3.3,4-3.13,3-1.77,3.27-3.62.16-2.66-4.47-2.48-4.39-3.69-5.64-2.1-2.18-1.58-1.41-2.58-2.81a10.6,10.6,0,0,0-3.86-3.36C56.44,92.26,60.29,88.28,61.86,86.76Zm17.46,60a14.29,14.29,0,0,1-2.4,1.7c-.91-.21-1.32-.57-1.12-1.43.15-.65.49-1.25,1.12-1C78.24,146.41,78.58,146.09,79.32,146.75ZM55.39,96.3c2-2.34,1.57-2.44,2.1-2.07,1.79,1.24,2.15,2.72,4.59,5,1.46,1.34,1.42,1.87,2.37,3.43.71,1.16,1.86,3,2.14,3.47a13,13,0,0,1-1.94,2.25c-1.52,1.37-1.24,1.5-1.62,1.15-2-1.88-3.31-4.85-7.85-8.43C52.4,98.85,51.85,100.47,55.39,96.3Zm-7.08,7.75c2.61-2.83,1.83-2.06,2.38-2.53,4.66,2.29,10.88,10.1,10.51,10.46-2.51,2.47-2.21,2.42-2.56,2-1.64-1.81-6.69-7.74-9.39-9.34C48.36,104.14,48.11,104.26,48.31,104.05Zm17.36,46.68a4.14,4.14,0,0,0-.3,5c.72,1.08-.28,1.09-.67,3.8,0,.37.28.39-4.39-2.74-3.92-2.62-18.43-13.52-21.48-17.11-5.82-6.84-10.33-11-5.38-17.56,4.32-5.75,12.46-15.35,12.88-15.61,4.12,1.45,8.78,8.07,10.46,9.57.28.25.56.14-1.48,2.06,0,0-4.7,4.74-6.79,7.5-1.34,1.77-2.68,2.28-2.41,4A8.06,8.06,0,0,0,48,132.28c2.31,2.69,6.63,7.48,15.41,16.13C63.41,148.43,65.94,150.42,65.67,150.73ZM53.81,137.17c-5.37-6.91-7.86-6.95-5.85-9.24,6.62-7.54,5.57-6.09,13.67-14.7,2.69-2.87,3.84-4.16,4.45-4.72s.68-.33,1.37-.24c.89.11,1.48-1.58,4.7-4.26.1-.08.17-.12.16,0-.09,1.91,1.39,2,1.39,3.47a12.07,12.07,0,0,0,.21,6.16c1.22,3.77,1.21,7.71,2,9.77,4.08,11.32,2.13,6.67,2.27,12,0,1.43,0,1.48-1.25,3.65-.65,1.12-.25,2.23-.85,3-.76.92-1.2,1.7-.66,2.73.39.74-1,1-.64,3,.26,1.5,1.6,1.05.92,1.94-.23.3-.74.74-1.66,1.67a15.73,15.73,0,0,1-1.4,1.31c-.31.24-.4,0-.68-.41a4.63,4.63,0,0,0-2.26-1.88c-2.1-.94-2.42,0-2.89-.49S54.13,137.57,53.81,137.17ZM68.28,151.8c2.7.54,3.9,3.35,1.47,3.87C66,155.43,65.87,151.32,68.28,151.8Zm20.85,9.85c-1.53.06-4.86-1.86-5.73-1.86a11,11,0,0,1-2.68-.39c-1.29-.31-5.88,3.45-8.63,4-2.36.5-4.78-1.28-5-2.14,0-.16-.09-.15.9-2.95.54-1.53,1.22.82,3.82-1.48a4.36,4.36,0,0,0,.93-2.44c0-.34.43-.75,1.56-1.8s2.1-2.06,2.92-2.76c4.27-3.66,4-2.64,8.41-2.29,3.16.24,2.11.18,8.75,2.87.48.19,0,1.17-.86,1a31.15,31.15,0,0,0-11.35-2c-.51,0-.89.37-.83.6.26,1,1.45-.65,11.85,2.33,2.6.75,3.09.71,3,1.08-.27.9-1.67.77-3.7.38-2.72-.52-5.68-1.4-9-.79-.54.1-.5,0-2.09-.13a.43.43,0,0,0-.33.77,25,25,0,0,0,3.63.89c1.2.22,1.8,0,2.57.4,2.1,1.22,2.33.56,3.44,1.27,2.84,1.81,4.16,1.6,3.42,2.27s-1.56.48-4.75-1.1c-2.13-1.06-4.77-.52-8.23-1.38-.91-.23-1.41.61-.77.85,4.66,1.71,4.16.8,6,2.15,1.27,1,1.57.75,3.26,2C90.06,161.32,89.49,161.64,89.13,161.65Zm9.49-9c-.21,1.84-1.1,6.12-.61,8.56.06.29-.09.19-.49.19a36.77,36.77,0,0,1-3.67-.38c-1.46-.22-2.25.23-3.14-.54-2-1.71-3.48-2-3.94-2.64,2-.1,3.46,1.49,5.61,1.87,1.42.26,2.83,0,3.33-1.34s-2.83-2-4.67-3.29a9.16,9.16,0,0,0-2.12-.6c-.26-.08-1.17-.54-.9-.56a6.49,6.49,0,0,1,1.38.21c1.11.29,3.34.67,5.25,1,.94.14,2.4-.22,2.6-1.56s-1.06-1.55-2.35-1.87c.41-.2.41-.82.67-.78s1.19.41,2.17.55a3,3,0,0,1,.78.23C98.78,151.81,98.69,152,98.62,152.68Zm1,9c-.17,0-.51-.07-.54-.24-.29-1.92-.58-1.51.48-9.27,0-.31.12-.39,1.38-.29-1.23,5.53-.57,8.63-.83,9.56C100.06,161.66,99.84,161.67,99.63,161.66Zm9.59.49c-2,.26-2.73.49-4.06.1-2.29-.69-4-.11-4-1.08a40.44,40.44,0,0,1,.67-8.64.8.8,0,0,1,.78-.66h1.35c.89,0,.93.74,2.17.55.87-.13,1.74-.19,2.61-.25.54,0,.44-.09.64,1.63C109,153.81,109.38,162.13,109.22,162.15Zm2.57.12c-1.22,0-1.26,0-1.34-.16-.37-.83,0-8.9-.26-9.75-.12-.38.11-.29,1.29-.29C111.59,153.32,112,162.27,111.79,162.27Zm6.9-.72a1,1,0,0,1-.53.37,16.45,16.45,0,0,1-2.33.26c-2.26-.11-2.85.2-2.88-.71-.39-12.86-1.42-8.49,2.48-9.83a3,3,0,0,1,1.92-.4c1.1,0,1.12-.15,1.22.64A94.22,94.22,0,0,1,118.69,161.55Zm1.31-.3c-.53,0-.27-.06-.25-1.38,0-.92.08-3.65.1-4.09.15-5-1.37-4.8.44-4.82a.2.2,0,0,1,.15.13,9.69,9.69,0,0,1,.39,3,47.64,47.64,0,0,0,.11,6.75C121,161.22,120.7,161.29,120,161.25Zm2.14-.35c-.45-.37-.12-7.17-.33-8.38-.44-2.59-1.75-1.53,4.06-2.53,6-1,6.27-2.15,6.38.23,0,.27.39,6.15.78,8C133.21,159,122.78,161.42,122.14,160.9Zm25.76-7.38c-.11.89-.18,1.1-.56,1.27a29.54,29.54,0,0,0-2.86,1.25c-1.7,1.12-2.89,1.1-4.47,1.61-3.66,1.2-4.62.21-4.61,1.12a.53.53,0,0,0,.13.38c.22.22.73.14,1.44.14a6.82,6.82,0,0,0,2.69-.4c3.09-1,3.28-.59,5.65-2,.5-.31,2.35-1,2.44-1.06,1.3-.56.72,3.45.73,3.94.1,11.89.74,11.59-2.78,17.12a3.63,3.63,0,0,1-3.29,1.41c-.2,0-.27.17-1.4-3-2-5.48-3.22-4.7-3.19-8.2,0-1.5-.35-2.48-.5-4.43a4.44,4.44,0,0,0-2.79-3.85c-.46-.24-.23-.51-.47-1.24-.13-.39.22-.18.57-.15,1.08.09,3.61.1,4.49-.39,1.48-.84,2.93-.72,5.62-2.18C147.61,153.29,148,153.07,147.9,153.52Zm-15-13.14a1.37,1.37,0,0,0,.15-1.35c-.07-.41-.22-.39,1.87-.52a13.22,13.22,0,0,1,2.93.44c1.22.18,2,1,4.18,2.33,2.74,1.68,4.42,8,5.16,11.09-3.2,1.54-9,4.88-12.9,3.93-.93-.23-.78-5.49-1.16-7.19-.05-.26-.24-.53-.18-.75s1.4-.76.84-2.07c-.64-1.53-1-1.16-.81-1.58C133.86,142.26,132.74,140.63,133,140.38Zm-.18,6.21c.15.28-.06.43-.23.61-.5.57-1,.32-2.33.56-.89.16-2.85.77-4,1,0,0-7.61,1.25-9.62,1.27-1.31,0-.74.49-2.72.63s-5.19.27-5.6.3c-2.52.18-2.63.41-3.06.06-.59-.46-.84-.31-3.65-.34-1.14,0-3-.1-3-.1-.77.28-2.48-.42-4-1-1.71-.69-3.24-1.32-3-1.41.91-.38,1.19-.63,1.86-.3,2.2,1.09,2,1.67,5.87,1.17,0,0,4.61-1.42,5.64-.93a8.14,8.14,0,0,0,3.74,1.16c2.37.12,2.68,0,3.48-.51,2.12-1.27.69.15,6.13-.1,3.91-.18,7.64-3.19,8.6-3.45a5.61,5.61,0,0,1,2.31.54,6.22,6.22,0,0,0,3,.17C132.62,145.88,132.62,146.31,132.77,146.59Zm-.52-7.36c.07,1.75-.11,1.24-9.4-5.52C103.33,119.49,99,107.94,75.08,79.31c-.32-.38-1.12-1.09-1.33-1.35s.07-.37.48-.53.46-.2,1.22.48c3.16,2.84,11.47,14.73,22,27.46,7.16,8.63,10.13,13.69,21.9,23.68a74.48,74.48,0,0,0,8,5.85C132.09,138.52,132.05,137.49,132.25,139.23Zm3.94-30.85c-1.42-2-3.95-3.51-5-5-.56-.76.07-.91-.51-3.61-.84-4-.13-4.76-1.2-8.53-.14-.46-.94-.59-1,0,0,.39.28,1.67.56,3.63a27.11,27.11,0,0,0,.55,5.24c.93,4.44-1,9.35-.89,14.51.21,8.81-.56,10-.26,13.87.25,3.27.49,1.17,1.89,6.82.07.27-13.85-7.48-28.15-25.81-1.84-2.35-25.69-32.15-25.63-32.17,1.65-.56,2.08-.87,2.85-.16C83,80.62,85.57,84,94.79,86.55c19,5.17,30.41-10.76,32-10.54,4,.59,4.47.26,6.19,1.91,3.53,3.39,3.23,4.59,8.11,9.25,1.12,1.07,3.86,3.21,5.36,4.46.44.37.25,0-2.38,3.94-1.92,2.91-2.83,5-4.22,7C137.05,106.54,137.28,109.89,136.19,108.38ZM160.07,124c-5.52-1-9.26-5.36-21.46-15.45-.58-.47.46-.91.84-2.75a6.57,6.57,0,0,1,1.38-2.49c.61-.87,4.15-7,4.8-8,.23-.36.23-.37,4.4,3.06.52.43,3.48,14.79,5.53,13.41.85-.57-1-1.94-2.16-6.16-2.1-7.89-4.45-20.92-7.84-28.4-.34-.75-1.4-3.83-2.13-4.67-1.66-1.94-7.91-2.58-9.52-5.93-.47-1-.22-.64-1.83-5.65-.26-.83,0-.93.14-1.09s.68,0,.87.21a6.81,6.81,0,0,1,1.13,2c1.49,3.27.95,3.74,2,4,2.34.66,1.84-.75,4.28-.33a15.8,15.8,0,0,0,2.26.48c.38,0,.74-.59.1-.84a5.29,5.29,0,0,0-1.94-.64c-.68,0,0-1.6-.6-3.46C139,57,139.86,57.06,138.6,56c-.83-.72-2.08-1.9-3.08-1.79s-.71.62-1.93,3.06c-.83,1.65-1.79,1.79-1.47.61a21.3,21.3,0,0,0,1.16-4.35c.36-2,2-2.32,3-1.71,1.42.88,1.15.38,3.08,1.51,2.23,1.3.76-2.86,1.23-9.94a25.25,25.25,0,0,1,.46-4.05c0-.17.09-.76.51-.84s.63.33.69,1c.22,2.4-.76,9.2,1.08,15.15-.85,0-1.86-.24-1.61.56.05.15,1.26.33,1.29.33,3.73.52,6.16,2.5,6.48,1.77.22-.52-.38-.76-.94-1s-.14-.18.84-2.68c.73-1.88,2.5-10.15,3.56-10,.33,0,.6.17.59.65,0,1.88-2.39,6.92-2.93,11.53-.61,5.09.48,2.13-.5,12.14-.23,2.39,1.51,2.75,4.67,9.44,0,0,3.95,9,5.17,11.28,3,5.5,7.3,13.43,8.44,18.72.56,2.58.23,10.63.1,11.38C167.62,123.27,163.25,124.57,160.07,124ZM139.56,64.17c0,.63-.27.24-1.73.87-.41.18-1.47.09-1.65-.31-.47-1.06-.16-1.05-.71-2.31A16.09,16.09,0,0,0,134.23,60c-.27-.44-.93-.43-.6-.8,2-2.21,1.59-4.22,2.45-3.83A8.7,8.7,0,0,1,138.19,57c.66.38.08,1.17,1.11,4.69A8.84,8.84,0,0,1,139.56,64.17Z" fill="#000001"></path><path d="M141.42,56.62c1.59-.32,8.42,1.94,8,2.64-.12.18-.22.42-.5.37-.83-.16-4.24-2.12-7.21-2.21A.42.42,0,0,1,141.42,56.62Z" fill="#000001"></path><path d="M145.61,66.26c-.24,3.39,4.12,3.23,3.29,4.18-.38.43-.61.25-.71.23-5.17-1.42-3.78-5.28-2.19-10.05.26-.79.47-.8.8-.73C147.77,60.09,145.81,63.42,145.61,66.26Z" fill="#000001"></path><path d="M132.3,193.31c.31.44-.2,1.43-.86.77s-.36-1-1.14-2.76c-1.84-4.1-2.23-7.61-3.52-12.37-.06-.23-.76-1.71-.27-1.82,1.61-.35,1.46,5.14,5.1,14.26A11.34,11.34,0,0,0,132.3,193.31Z" fill="#000001"></path><path d="M126.27,112.81c.2.27-.14.52-.34.61-1.38.61-3.86,2.85-11.45,2-5.29-.59-5.62-1.85-8-2.62a.46.46,0,0,1-.32-.44c0-.19.12-.36.58-.35,1.71.06,1.22,1.07,7.35,2.13C123.19,115.71,125.16,111.37,126.27,112.81Z" fill="#000001"></path><path d="M119.2,45.91c.54.5.45,1.29.12,1.43-.17.08-.3,0-.5-.4s-.44-.28-.76.08c-1.48,1.72-.35,2.11-.27,2.66a1.38,1.38,0,0,1-.34,1.12c-.35.44-1,1.11-1.39.74s.1-.85.47-1.33c.63-.82-.59-.69-.08-2.21S118.42,45.18,119.2,45.91Z" fill="#000001"></path><path d="M113.28,39.85c.21.62-.55.89-.91.43-1.07-1.36-2.13-2.84-5-1.65-1.24.51-1.51-1.3,1.38-1.45a3.68,3.68,0,0,1,2.74.46A4.46,4.46,0,0,1,113.28,39.85Z" fill="#000001"></path><path d="M109.66,192.27c.4,1.26-1.07,1.68-1.17.51-.19-2.34-1-4.55-1-6.54a74.85,74.85,0,0,0-.52-8.49.49.49,0,1,1,1-.09c1,6.56.22,7.52,1.16,11.79C109.34,190.44,109.52,191.84,109.66,192.27Z" fill="#000001"></path><path d="M108.89,53.22c-.34,1.74-1.17,1-1.11.38,0-.33.08,0,0-.61-1.12.68-3.44,3.55-5.54,4.76-3.45,2-4.54-1.48-6.36-5.45-.83-1.82-.79-2,.37-1.73a29.33,29.33,0,0,0,9.38,1.37c.44,0,1.42,0,1.15-.4C106,50.54,108.58,50.19,108.89,53.22ZM106,53.1c.48-.43-1,.37-5.52-.49-4.74-.89-3.68-1.1-3,.67C100,59.29,101.18,57.54,106,53.1Z" fill="#000001"></path><path d="M107.82,41.83c.36.13.5.55.32,1.4s-1.45.83-1.13-.81A.67.67,0,0,1,107.82,41.83Z" fill="#000001"></path><path d="M106.2,77.25c.17.78-3.87,1.38-4.67,1.37s-1.1-.12-3.82-1.29c-.89-.38-3.7.45-4.64.74s-1.44-.39-.11-.74c3.64-1,4.12-1.37,6.33-.27,1.35.67,1.49.69,1.84.71C104.28,77.9,106,76.29,106.2,77.25Z" fill="#000001"></path><path d="M104.19,46.61c.75,0,.57,1.52-.59,1.77a1.59,1.59,0,0,1-1.33-.38c-.18-.13-.26,0-.47.19-2.91,2.13-6.32-2.24-2.9-5a3.57,3.57,0,0,0,1.21-1.71c.28-.38.65-.17.68.21A2.31,2.31,0,0,1,100,43.8c-.88.82-1.58,1.34-1.31,2.56a1.61,1.61,0,0,0,2.88.36c.71-1,.66.26,1.54.6.39.15.53-.17.66-.35S103.87,46.63,104.19,46.61Z" fill="#000001"></path><path d="M95.17,33.91c2.71-1,5.07.35,4.43,1.32s-1.79-1.45-4.28-.24c-1.55.75-1.44,1.56-1.74,1.65C92.34,37,92.93,34.71,95.17,33.91Z" fill="#000001"></path><path d="M97,39.73c.43-.13.86.36.8,1,0,.46-.32,1-.79.91-.22,0-.55-.37-.54-1S96.67,39.81,97,39.73Z" fill="#000001"></path><path d="M97.23,112.08a.47.47,0,0,1-.45.47,22.55,22.55,0,0,1-3.27.55s-4.59.5-4.59.52c-11.78-1.26-10.75-4.58-9.8-4.05A11.36,11.36,0,0,0,81.74,111c4.92,1.48,4.11,1.69,12.18,1C95.32,111.92,97.18,111,97.23,112.08Z" fill="#000001"></path><path d="M86.74,176c.67-.09.6.67.76,1.78-.35,3.63-2,7.07-1.86,9.56.25,3.76-.6,3.31-.4,5.33,0,.26,0,.94-.42,1-.8.07-.81-.72-.91-1.77a10.61,10.61,0,0,0,.6-4.09c-.44-3.46,2.39-8.75,1.88-10.77C86.28,176.63,86.27,176.08,86.74,176Z" fill="#000001"></path></g></g></svg>