<svg xmlns="http://www.w3.org/2000/svg" viewBox="0 0 400 400" height="999" width="999"><g transform="matrix(2,0,0,2,0,0)"><g><path d="M80.11,96.54c0,.12-.07.47-.15.48a1,1,0,0,1-.34-.09c-1.84-.63-1.4.27-1.17.34.68.2.4.09,1.3.37a4.35,4.35,0,0,1-1.23,1.59c-.62.42-.76.34-1.84.1a24.92,24.92,0,0,0-10-.3c-.36.09-.49.14-.66-.19s-.22-.51.27-.68c1-.33,3.59-.86,9.61-.18,1.49.17,2.36.64,2.43,0,0-.15-.65-.29-1.45-.42a45.49,45.49,0,0,0-6.68-.46,14.48,14.48,0,0,0-3.78.49c-.47.19-.54.16-.59,0a1,1,0,0,1-.11-.5c0-.17.06-.2.23-.24a26.38,26.38,0,0,1,3.69-.49c4.47-.19,5.52.14,6.54.33.79.15,1,.37,1.22,0,.34-.59-3.3-1.07-6.9-1a27.57,27.57,0,0,0-4.44.51c-.22,0-.42.22-.53-.19,0-.17-.06-.24,0-.3a.77.77,0,0,1,.29-.1,23.94,23.94,0,0,1,6.92-.58,33,33,0,0,1,6.92,1.2C80,96.38,80.08,96.46,80.11,96.54Z" fill="#ffffff"></path><path d="M79.61,95.12c.21,0,.45.54.45.73-.4,0-6.6-2.53-13.39-.81a7.59,7.59,0,0,0-1.21.32c-.13.08-.16,0-.18,0a.59.59,0,0,1-.07-.37c.23-.55,3.51-1.12,4.27-1.17A31.46,31.46,0,0,1,79.61,95.12Z" fill="#ffffff"></path><path d="M78.21,91c2,5.82,1,.44-7.53.28-.52,0-1.27.06-1.21,0,.17-.26,1.34-.48,1.61-.54a19.15,19.15,0,0,1,6.1-.31C77.58,90.45,78,90.28,78.21,91Z" fill="#ffffff"></path><path d="M89,88.49c.67.21-8.82,6.11-8.93,5.8C78.82,91,79.15,90,76.66,88a12.38,12.38,0,0,0-3.49-2A20.25,20.25,0,0,0,71,85.23c-.5-.14-.66-.35-.09-.36s.89-.07,1.2-.05c.69,0,1.75,0,1.91,0C85.45,85.3,86.46,87.67,89,88.49Z" fill="#ffffff"></path><path d="M116.24,99.22c1.68,1.2,1.55,1.12,1.35,1.22,0,0-.14.11-8.33,4.12-6,2.9-3.06,3.1-6.66,1.18-4-2.16-21.58-10.61-21.69-11,0-.11.57-.34,2.17-1.25,3.21-1.83,6.69-4.61,11.32-7.1,2.84-1.53,1.69-1.7,4.15,0a31,31,0,0,0,3.09,2c1.56,1.66,3.15,1.69,2.57,1.82-6,1.38-9.26.89-8.71,2.75.37,1.27,3.18.48,7.47.18.82-.05.8.06.44.13a63.6,63.6,0,0,0-6.61,1.51c-1,.31-1,.67-1,1.1a.82.82,0,0,0,.75.77,33.83,33.83,0,0,0,4.48-.58s.09.06,0,.2c-.34,1.08.24,1.62,1.12,1.56a21.64,21.64,0,0,1,3.68-.18c-.36.17-1.61.36-2.5.66a.89.89,0,0,0-.15,1.68c1.18.77,2.41.17,4.16-.08,3.54-.5.41.17,7.27-.63C115.78,99.17,116.07,99.1,116.24,99.22Z" fill="#e3b27d"></path><path d="M79.74,100.33l0,0c-.9-.41-1-.42-.62-.8a4.45,4.45,0,0,0,1.55-3.74c-.12-.46.12-.2,3.52,1.52,19.17,9.66,19.78,9.88,20.15,10.31.16.19-.39,1.53-1.32,2.34a2.19,2.19,0,0,1-2.82.44c-1-.41-2.67-1.55-7.24-3.68-2.12-1-3.3-1.68-6.75-3.3C79.59,100.32,79.72,100.33,79.74,100.33Z" fill="#e3b27d"></path><path d="M77.69,100.17c.16,0,8.73,4.07,7.15,3.56-6.07-2-5.94-2.66-12.11-3.76-2.76-.49-4.93-.68-2.19-.72A28.23,28.23,0,0,1,77.69,100.17Z" fill="#e3b27d"></path><path d="M193.18,126.93a7.39,7.39,0,0,1-.51,8.31c-2.22,3-4.85,2.49-6.22,4a6.08,6.08,0,0,1-2.61,1.73,13.37,13.37,0,0,0-2.91.92c-2,1.12-.8,4-1.54,4s-.73-.06-.89-.65c-1.27-4.59.9-5.84,3.2-8,3.89-3.72,2.51-5.38,2.83-6C187,126.31,192.24,125.21,193.18,126.93ZM191.05,129c.17-.21,0-.66-.39-.44-.8.4-.58,1.78-1.5,2.95-.51.63-1.8,1.27-2.77,2.21-1.46,1.43-1,1.77-2,2.91-1.22,1.31-2.34,1.09-3.38,2.82-.87,1.44,0,1.79.39.77.78-1.83,2.28-1.62,3.63-3.12,1-1.11.85-1.76,2-2.81,1.57-1.46,2.51-1.53,3.12-2.82C190.82,129.94,190.58,129.58,191.05,129Z" fill="#d4f2e2"></path><path d="M187.54,114.88c1.33,7.08-4.78,9-4.34,14.62.16,2.12,1.21,2.71-.72,5.57-1.57,2.33-6.43,3.88-5,9.94.22.91.45,1,0,1-.15,0-1.46,0-1.65,0-.35-.06-.67.2-.8-.14-.26-.67-1.84-3.23-1.75-5,0-.57.22-1.22,2.17-2.91a4.85,4.85,0,0,0,1.34-4c-.13-1.4-.53-1.6-.32-3,.38-2.49,1.9-2.38.31-7.84a11.22,11.22,0,0,0-1-1.91,9.82,9.82,0,0,1,.61-4.5c.91-2.29,1.22-3.87,3.45-5.23,1.19-.73,2.75-1.67,4-1.25C185.45,110.77,186.93,111.65,187.54,114.88Zm-5.32.05c1.5-2.57-.33-2.69-1,.26-.25,1.06-.36,3.13-.56,4.13-.5,2.54-1.59,3.11-1.86,5.38s.32,3.11.3,4c-.06,2.45-1.5,3.77-.75,4.08a.27.27,0,0,0,.35-.12c2.44-4,.44-5.19.94-7.7.78-4,1.54-1.8,2.16-7.57C182,115.67,182,115.32,182.22,114.93Z" fill="#d4f2e2"></path><path d="M184,145.86c0,.65-.5,5.72-.95,5.83-2.6.61-8,.64-11.62.77a89.6,89.6,0,0,1-12.26-.38c-3.17-.32-3.23-.5-3.48-5.94,0-.44.12,0,1.57.31a60.7,60.7,0,0,0,12.67.74c1.59-.34,7.63.06,12.73-.79C183.61,146.25,184,145.53,184,145.86Z" fill="#fff5db"></path><path d="M181.66,142.75c1.39.36,3.09,2.08,1.2,2.67-.33.1-2.33.61-2.32.12a5,5,0,0,1,.23-2.51C181.21,142.34,181.35,142.68,181.66,142.75Z" fill="#edc294"></path><path d="M182.07,152.81c.68-.1-2,18.39-2.15,19s-.23.63-.51.66c-9.66,1.1-17.25.45-19-.17-.45-.16-.41-.68-.52-1.27-.62-3.48-2.8-15.55-2.8-18.42,0-.34.52.3,5.79.58A156.6,156.6,0,0,0,182.07,152.81Z" fill="#fff5db"></path><path d="M181.24,172.75c0,.21-.36,3.76-.47,4.35-.14.79-.57.83-1.94,1.16a47.34,47.34,0,0,1-9.11.69c-4.66,0-9.36-.59-10.22-1.56-.4-.46-.57-3.62-.59-3.87,0-1.44-.27-.37,2.59-.08a44.94,44.94,0,0,0,8.74.5,80.13,80.13,0,0,0,9.75-.74C180.89,173.06,181.22,172.32,181.24,172.75Z" fill="#fff5db"></path><path d="M175.7,122.84c-.45-1.1-1.23-1.32-2.39-2-6.15-3.76,4.66-13.22.94-20-2.49-4.66-11.05-2.69-11.27,5.93-.08,2.8.32,3.19.83,5.47.09.38.18.58.42.68,2,.88,2.36,3,2.56,3.75a7.27,7.27,0,0,1,.25,1.77c.09,3.61-2.44,6-1.12,6.62s1.44.43,2.07.88c2.81,2,3.79,6.69-.2,11.23-1,1.2-2.28,2.23-1.42,3.45,1.54,2.19,2.3,1.2,2.68,5.38,0,.49-.07.32,1.38.27.7,0,.42-.11.25-.74-.4-1.5.44-1.33-1.22-4.17-1.27-2.19.19-3.81,1.77-6.06,1.35-1.91-.63-3.42,0-5.57,2.22-7.19-3.17-6.35-3.61-11.5a15.36,15.36,0,0,1-.06-1.72c.08-4.91,2.37-7.14,1.24-11.78-.13-.57.43-.56.59-.34a1.65,1.65,0,0,1,.33.91c.88,4.39-2.08,9.29-1.22,13,.2.84,0,1.07.41,1.59a16.89,16.89,0,0,0,1.8,2.27c1.34,1.11,2.29,4.53,2,6-.4,1.9-1,2.25-.62,3.35,1.8,5.05-2.21,5.39-2.22,8.28,0,1.16,1.56,2.26,1.46,4.46,0,.64.34,1.95.51,1.94,2.47-.25,2.47.27,2.11-.63-1-2.47-1.23-2.8-1.34-3.63-.18-1.4-.18-2.6,1.72-4.22,2.68-2.31,1.27-4.59,1.2-5.87C175.36,128.6,178,128.4,175.7,122.84Z" fill="#d4f2e2"></path><path d="M166.86,126.47c1.67.39,3,3.26,2.69,4.74-1,4.92-1.6,4-3.87,7-2,2.66,1.94,4.07,2.32,6.24.44,2.48.16,2.09-2.15,1.88-.32,0-.23-.5-.52-1.94a5.6,5.6,0,0,0-1.22-2.86c-.71-.73-1.83-.8-1.88-2.71-.13-4.67,2.57-1.12,3.88-7.32a3.84,3.84,0,0,0-.16-2.87,3.08,3.08,0,0,0-1.36-1.06c-2.12-1-2.59-1-2.81-2.46-.3-1.86.94-2.93.93-5.18,0-1.23-.74-.94-.73-.42.06,2.39-1.49,3.5-.81,6.37.55,2.36,5,1.6,4.39,4.76-1.09,5.44-3.22,4-3.76,6a5.06,5.06,0,0,0,.53,4.39c.41.55,1.29.56,1.79,1.79.21.52,1.12,3.46.57,3.37-.31,0-2.42.19-2.78-.36-1.2-1.83-.52-2.38-1.16-3.41-1-1.69-4.28-3.63-3.34-6.38a5.83,5.83,0,0,1,1.63-3.46c.73-.7,1.52-.93,2-2a2.74,2.74,0,0,0,.15-2.51,8.52,8.52,0,0,0-1.88-1.69c-1.15-.9-1.88-2.2-1.36-4.87.44-2.25.43-4.39,1.69-6.33,1.67-2.59,6.08-3,6.48,3.2C166.14,122.8,162.2,125.37,166.86,126.47Z" fill="#d4f2e2"></path><path d="M167.35,61.13c.17,2-1.43,5.45-2.08,5.71-.45.18-1.12.49-1,.12s.56-.88-.55-.4c-.32.13,0-.31.32-1.22.1-.31-.1-.46-.38-.29s-1,.65-1.69,1c0-.3.06-1-.05-1.08s-.34.16-.61.27c-.43.18.33-1,0-1.36s-.42,0-1.17.44c-.5.29.71-.92,1.1-2a10.3,10.3,0,0,0,.07-3.33c-.2-1.49-1-1.39-1.95-3.23-1.94-3.71-3.75-3.75-6.16-4.92a14.28,14.28,0,0,0-2.87-.74c-.16,0-.21,0-.39-1.13-.48-3-.67-3.36.25-5.68a3,3,0,0,1,2.57-1.61c1.17,0,1-.7.75-.81s-.26-.1-1.74.13c-1.29.2-1.19,1.6-.39-2,.36-1.6,0-4.13-.53-4.24-.11,0-.45,0-.38.1s-.07.29,0,.43a7,7,0,0,1-.11,4.54c-.14.38-.24,1.09-.35,1.41a20.2,20.2,0,0,0-1.21,4c-.25,2.09.63,4.41.55,5.11s-.64-.92-.9-.14c-.17.52.39.72.43,1.23a1.48,1.48,0,0,1-.21.6c-.25.56-1.21-2.26-1.4-.76-.06.47.91,1.37.33,1.41-.13,0-.49,0-.57-.1a6.17,6.17,0,0,1-.53-1.17.5.5,0,0,0-.39-.25c-.52.09-.14.78,0,1.11s0,.24-.08.22c-.63-.43-1.07-1.06-1.52-3-.52-2.14.66-4.35.52-6.51-.05-.59.1-3.75.1-3.77.1-1.25-.49-1.91-.85-3-.17-.52-.75-.18-.68.16.25,1.14.66,1.52.76,2.24a7.83,7.83,0,0,1-.06,1.82c-.06,5.11,0,4.6-.53,4.72-1.67.37-3,1.53-2.44,3.42.11.37-.22.19-.43.17-1-.08-.53,0-1-.6-2.21-3-3.3-2.59-2.65-3.5,1.15-1.6,2.71-.09.52-3.75a6.85,6.85,0,0,1-.66-1.39.36.36,0,0,1,.13-.4c1.29-1.4,1.67-1.62,1.63-2.89,0-.65-.69-.38-.72,0a1.74,1.74,0,0,1-.43,1.1c-2.89,3-2,1.57-1.94,4.11,0,.69-.69,1-.77.82a8.52,8.52,0,0,1-.26-.86c-.1-.63-.71-.55-.64.11.12,1.09.5,1,.2,1.12s-.63.28-.79-.08c-.44-1-.19-1.17-.61-1.19-.69,0,.07,1.44-.62.77a6.83,6.83,0,0,1-.61-2.46c0-1.79.94-2.22,2.19-4,1-1.49-1.34-2.89-.36-6a2.19,2.19,0,0,0,0-.51.58.58,0,0,0-.42-.65c-1.47-.64-1.46-1.43-1.76-1.46s-.12-.63-.73-.52c-.42.06.05-.14,0-2.58-.07-1.93,0-2-.21-2.35s-.4-1.08-1.46-2.8c-.36-.57-.37-.54.29-.71a4.13,4.13,0,0,1,2.55.28c.21.08.05.21-.29.6-.94,1.05-.92,2-.22,1.19a11,11,0,0,1,1.42-1.39,6.31,6.31,0,0,1,4.83-1.38c.79-.09.14-.57-1-.76-.14,0,.36-1,.62-1.4a13.79,13.79,0,0,1,1.43-1.63c.27-.28.31-.31.46,0a8.48,8.48,0,0,1,1,3.67c0,.2-.06.25-.3.28s0,.5.21.69c1.11,1,1.57,2,2.49,2.84a1.86,1.86,0,0,0,1.22.59c.18,0,.35,0,.31.13-.12.35-1,.55-.55.94a.53.53,0,0,1,.28.46,5.79,5.79,0,0,1-.52,2.56c-.27.58-.11.73,0,.77a.49.49,0,0,0,.5-.2c.15-.39,0,.17,4.69,1.89,3.41,1.26,1.91,1.17,2.5,1.63,5.93,4.67,4.62,8.67,5.58,10.25,2.3,3.81,1.23,6.72,2.57,8.26.41.48.44.07,1.13.83s1.42.68,2.71,2.17c2.37,2.75,2.78,2.29,4.1,6.43C167.2,58.31,167.06,58,167.35,61.13ZM139.24,17.64c.18-.91-.14-3.36-.65-3.11-.27.14.08.9.19,1.56a6.21,6.21,0,0,1,0,1.59C138.78,18,139.13,18.2,139.24,17.64Zm-.81,8.29c.54-.81.56-1.24.49-1.45s-.36-.16-.48.1c-.3.64-.74,1.24-1.53,1.19-1.65-.12-1.11-.39-.91-1.42a.66.66,0,0,0-.11-.53c-.24-.21-.85.25-.92.31-.47.42-1.32.21-.92.85a.8.8,0,0,0,.4.32,5.41,5.41,0,0,1,.84.36c.1,0-.12.83-.37,1.08a1.13,1.13,0,0,1-1.17.35c-.29-.1-.49-.36-.6-.38-.35-.07-.21.5.14.78a1.51,1.51,0,0,0,1.7.09,1.79,1.79,0,0,0,.86-1.15c.11-.1.22-.12.55,0C137.14,26.56,138.08,26.48,138.43,25.93Zm-1.61-2.63c.46-.23,0-1.42-.68-1.1a.53.53,0,0,0-.17.59A.61.61,0,0,0,136.82,23.3Zm-3.64,1.33c.5-.38-.22-1.36-.68-1a.38.38,0,0,0-.11.5C132.52,24.54,132.88,24.85,133.18,24.63Z" fill="#d9d9d9"></path><path d="M162.8,70.72c2.1-1.2,2.37-2.69,2.31-1.36-.31,7.27-2.61,11.67-10.45,30.18-.86,2-.63,1.94-1.22,1.83-1.16-.23-1.2-.05-1.13-.78a23.12,23.12,0,0,0-.09-4.92c-2.86-18.62-2.39-13.75-1.41-15.7.41-.81.2-.91-.45-3.07-.48-1.56,6.43-13.51,3.27-19.55-.9-1.71-1.8-1.25-1.24-.54,3.69,4.68-1.21,13.84-2.5,18.4-2.47-5.48-.95-10.85-4.32-12.88-4.87-2.92-4.08-2.75-11.47-1.9-2.2.25-1.23-.1-2.54-.06-.79,0-.51.54-1.27-1.46-.1-.29.45-.53,1.28-1.95.08-.13.1,0,.1,0,0,1.47-1.22,3.39.21,3,4.32-1.11,4.26-5.83,3.81-1.17-.07.66.38.4.64.32a7.91,7.91,0,0,0,4.41-9.45c0-.16,0-.24.14-.21.37.07,2.57.21,2.59.22,1.26.24.3,4.3,4.61,3.69,1-.15,1.31-1,1.74-1.86s-.11-1.18,2.82-.17c6.47,2.22,5.45,4.9,7.29,6.48.9.77.77,1.81.77,2.72,0,5.16-6.12,5.15-6.15,8.39a3.68,3.68,0,0,0,.34,2.24,3.79,3.79,0,0,0,2.89,1.47C158.85,72.78,159.9,72.36,162.8,70.72Z" fill="#c5cdf3"></path><path d="M163.66,68.17c.5-.1.46-.2.91-.19-.86,1.36-5,3.87-6.67,3.86a2.43,2.43,0,0,1-2.09-4c.38-.44.26-.16,3.11-2.28a1.15,1.15,0,0,1,.63-.37,5,5,0,0,0,1.08-.42c.14-.06.26,0,.2.15-.16.4-.46,1.38.17,1.11.45-.29.53-.31.53-.29,0,.32,0,.5,0,.68.05,1.11,2.05-1,1.85-.58-.11.23-.37.71-.66,1.19-.15.26-.25.59.25.41s.68-.34.7-.27S163.1,68.28,163.66,68.17Z" fill="#ffffff"></path><path d="M160.82,145.84c.14.28-.15.14-1.48.08-.47,0-.35-.22-.94-1.77-1.18-3-5.22-5.16-6-6.85-2.65-5.68,1.12-8.84,3-8.77a4,4,0,0,1,2.11.63,4.1,4.1,0,0,1,1.9,1.72c.13.16,0,.17-.66.7a7.15,7.15,0,0,0-2,2.75c0-.06-.59-3.23-1.22-2.94-.12.06-.29.08-.31.29a1.15,1.15,0,0,0,0,.58c.54,1.12.38,2.37,1.07,3.46.23.36-.22,1.41.14,2.49.84,2.54,2,2.77,3.11,4.22C160.56,143.56,160,144.09,160.82,145.84Z" fill="#d4f2e2"></path><path d="M158,145.54c.09.29-.29.15-1.33-.12-.35-.09-.61,0-.86-.22a1.64,1.64,0,0,1-.2-.65,4.46,4.46,0,0,1,1.31-1.06C157.34,143.21,157.83,145,158,145.54Z" fill="#edc294"></path><path d="M157.89,106.43a3.41,3.41,0,0,1-1.6,3.19c-.89.63-2.08,1.29-6.28,1.07-4.57-.23-13.13-1.79-16.76-1.65-2.84.11-4.26-.06-5.63,2.24-8.88,14.87-7,15.76-12.84,18.25-9.12,3.87-38,9.66-47.61,7.21-3.31-.84-6.16-.29-10.17-7.15-.45-.76-.65-.85-.36-1.15a16.76,16.76,0,0,0,2.63-5.07c.11-.51,0-.19,2.13,1.41,1.86,1.4,4.9,1.52,6.14,1.52,4.73,0,13.77-1.55,14.35-1.59,15-1.19,12.15-.54,19.4-2,15-3.1,11-.18,15-7.21.09-.17,1.8-4,1.81-4.06,3.81-9.42,5.92-9.72,12.32-9.23,1.88.15,2-.12,2.53.21a99.29,99.29,0,0,0,13.57,2.89c2.38.15,5.38-.78,5.56-3.11,0-.4.3-.22,1.87.21A5,5,0,0,1,157.89,106.43Z" fill="#c5cdf3"></path><path d="M152.7,111.66c4.63-.4,5.42-3.79,1.54,2.86-10.48,18-10.88,20.74-14.69,26.84a3.4,3.4,0,0,1-2.52,1.43,29.94,29.94,0,0,1-6.46.34c-9-.74-36.8-1.7-57.33-5.07.48-.1,3.19,0,3.19-.06,6.57,0,26.23-2.8,36.72-6.8a16.67,16.67,0,0,0,5.32-2.64,11.46,11.46,0,0,0,2.08-2.81c2-3.14,5-8.88,6.7-12s2.18-3.21,3.08-3.48C135.41,108.78,147.17,112.15,152.7,111.66Z" fill="#c5cdf3"></path><path d="M150,78.19c.16.51.37.55-.24.43a29.33,29.33,0,0,0-3.38.19,9.59,9.59,0,0,0-2.56-.08c-1.78.36-2.14.88-4.07,1.9-.89.47-1.49.49-2.08.91-.08.06-.11,0-.12-.05-.29-3.2-.77-3.2-.55-5.47.25-2.54-.42-4-.38-7.93a27,27,0,0,1,.94-4.64c0-.18-.13-.19-.25-.25-.43-.18-1.81,3.44-1.2,8.38.42,3.41,0,5,.17,6.31.31,2.44.35.69.56,3.49.08,1.18-.07,1.68.76,2.06,1.31.61,1.49.4,1.49.76,0,.76.42,3.57.43,3.84.07,1.31-2.31,4.49-3.14,6.19-.1.2-1.37.11-2.71,0-10.45-1.23-13.47-.68-24.29-5-.25-.1-.22-.27-.1-.57s1.3-2.72,1.79-4.18a5.56,5.56,0,0,0,.29-1.46,12.82,12.82,0,0,1,.1-3.6,2.35,2.35,0,0,0,.13-.64c.15-1.69.93-1.31,5.37-5.27.83-.75,3.59-4.93,3.35-5.75-.19-.67-1.35,1.68-1.61,2.14-2.85,5.05-7.16,6.06-7.7,7.77a12.59,12.59,0,0,0-.52,4.15c0,3.41.72,1.71-4-.88-.51-.29-.47,0,1.35-2.17,0,0,.92-1,1.16-1.21a23,23,0,0,0,2.65-3.29c1.47-2,2.1-3.44,4.09-4.64,7-4.64,6.6-4.39,6.79-3.93s-.88.56-1.37,2.15a24.89,24.89,0,0,1-1,2.89c-.71,1.89,1.63,5.1,6.48-1.28a22,22,0,0,1,2.2-2.77c1.88-1.71,2.1-3,3.25-4.21.34-.36.28-.9-.14-.81s-.27.22-.66-.39c-.13-.21.91-.15,1.16-.1a44.57,44.57,0,0,0,5.84-.38c4-.33,3.61.55,5.47,1.36,2.14.93,2.79,1.76,3.31,3.7.38,1.41.41,3.35,1.15,6.41C148.52,73.86,149.23,75.86,150,78.19Zm-14.91-3.84c.93,1.34-.3-4.42-.26-7.4,0-1.63.12-2-.33-2C133.59,64.82,134.62,73.71,135.06,74.35Zm-8.51,12.77s2.76.09,2.38-.53c-.26-.42-.16-.29-1.84-.16-.86.07-.36-.17-1.23,0-3.15.57-6.54-1.69-7.15-1.55-.19,0,0,.2,0,.29s-.27.08-.09.18A11.87,11.87,0,0,0,126.55,87.12ZM122,88.47a.42.42,0,0,0,.54-.4c-.47-.54-1.34-.62-1.77-.83a13.31,13.31,0,0,1-1.89-1.07c-.4-.19-1.32.48,1.66,1.76C121,88.13,121.48,88.26,122,88.47Z" fill="#ffccce"></path><path d="M143.71,46c.22,0,.28,0,.28.27-.62,3.28.53,2.86-1.49,2.7-.3,0-.34-.07-.37-.36-.13-1.34-.33-1.5,1.3-2.5A.86.86,0,0,1,143.71,46Z" fill="#d9d9d9"></path><path d="M143.37,177.13c.25.52-2.41.39-3.11.37-1,0-12.89-22.77-16.15-28.06-.39-.64-1.09-.46-.42.76,1,1.89,1.23,2,.51,1.84s-6.87-.59-6.92-.59c-1.6,0-8-.86-8.15-.87s-.26,0-.26-.39c0-1.05.38-3.38.44-4.71a.76.76,0,0,0-.17-.6c-.18-.16-.65-.38-.74.15-1.22,7.95-3,37.46-3.52,41.19-.09.57-.47.48-1.18.61a3.27,3.27,0,0,1-2-.25c-.24-.15-.32-.24-.35-1.69-.1-4.24-.7-18.71-.69-18.86.06-.68-.17-22-.17-22a.39.39,0,0,0-.77.09c-.28,4.74,0,5.53-.37,5.37s-34.66-4.93-38.86-5.86c-.69-.15-.91-.6-1.12-.45-1.36,1,3.34,1.63,5,1.8.26,0-17.61,32.69-18.42,32.82-.36,0-.71,0-.71,0-2.23-.05-2.87.11-2.26-1,1.78-3.17,13.78-36.45,16-42.67.16-.46.45,1,2.92,2.08,12,5.39,68.65,7.36,68.69,8.06C130.64,144.48,138.51,167.12,143.37,177.13Z" fill="#fff5db"></path><path d="M140.3,51.2a7.08,7.08,0,0,1-.4,3.29A5.93,5.93,0,0,1,138,57.22c-.14.12-1.36,1.07-1.55.93s.23-1.48-.22-3c-.05-.17-.22-.19-.38-.09-.4.25-.13,1.24-1.52,2.57-.75.72-2.6,2.28-2.34,1.28a10.2,10.2,0,0,0,.16-3.93c-.05-.35-.47-.39-.53-.07-.42,2.35-3.07,4.6-3.07,3.85a15.18,15.18,0,0,0-.61-6c-.19-.84,2.45-.1,2.16-5.22-.17-2.94-2.36-3.69-3.87-2.61a2.63,2.63,0,0,0-1.14,1.78c.08.51-.47.63-1.28.9-1.68.56-3.5-.46-5-1.47-.82-.56-2.33-2.51-5.44-3.65-2.25-.82-3.67,1.38-4.55-.3a2.94,2.94,0,0,1,.06-2.08,15.2,15.2,0,0,1,2.36-4.49c2-2.39,3.19-3.24,4.93-3.76a9.83,9.83,0,0,1,6.52,0,8,8,0,0,1,3.69,2.35c2.28,2.37,2.46,4.9,3.85,7.19s5.29,3.26,7.37,5.2C139,47.78,140.32,49.52,140.3,51.2Zm-1.56,1.71c-.3-2.26-.28-2.76-2-4.89-.13-.17-.42-.07-.49-.32-1.62.17.44,0,1.5,3.27.79,2.46-.47,3.6.28,4C138.49,55.14,138.66,53.4,138.74,52.91ZM134,56.12c.76-1.47,1-1.66.62-4.33s-.44-3.27-3-6.65c-.18-.23-.67-.18-.56.08.49,1.17,2.38,2.7,2.76,5.13.15.9.86,3.53.12,4.7C133.05,56.38,133.82,56.48,134,56.12Zm-3-2a4.27,4.27,0,0,0-.27-1.64c-.25-.54-.38-.82-.57-.72s-.06.52.21,1.5c.11.39.17,1,.34,1S130.93,54.3,131,54.07Zm-2.57-13.7c.31-.17.11-.5-1-2.5a11.91,11.91,0,0,0-4.27-4.42c-1.28.62,1.9,1.06,3.82,4.92C127.94,40.33,128.08,40.55,128.41,40.37Zm-1.63,1.75c.29.21.55-.21.36-.4-.77-.76-.82-.76-.82-.75a34,34,0,0,0-2.41-3.15c-3.44-4.31-5.81-4.12-6-4.22-.51.42.36.48,2,1.36C122.18,36.16,125.14,41,126.78,42.12ZM126,44c-.07-.22-.14-.41-.38-.46-1-.2-1.3-1.28-1.79-1C123.47,42.73,125.26,44.81,126,44Zm-2.45,1.78c.83.11.89-.52.44-.63-3.5-.9-3.59-2.8-5.77-4.25-1-.7-2.18-2.1-4.48-2.33a4.13,4.13,0,0,0-2.19.22c-.19.09-.41.24-.9.53s0,.68.29.54a4.19,4.19,0,0,1,1.54-.65,12.58,12.58,0,0,1,2.31.26C118.78,41.2,120.6,45.4,123.52,45.77Zm-1.2-4.86c.38.26,1-.15-1.65-2.52-2.19-2-4.27-3.66-7.08-2.83-.31.1,0,.58.28.52a4.86,4.86,0,0,0,1.07-.16,6.29,6.29,0,0,1,3,1.1C120.78,39,121.56,40.4,122.32,40.91Z" fill="#ffa87d"></path><path d="M140.2,94c0,1.07.66,1-2.93.55-.29,0-.23.39,2.37-4.31C139.82,89.88,140.2,93.81,140.2,94Z" fill="#c5cdf3"></path><path d="M131,62.15a.23.23,0,0,1,0,.35,22.74,22.74,0,0,1-2.28,3.11c-1.84,1.77-1.88,2.32-3.75,4.56-3.2,3.83-4.74,2.07-4.32.7,0,0,.76-1.91,1-2.86.13-.46.88-1.7,1-1.36.21.61.17.9.5.91s.39-.19.31-.52c-1.33-5.18-.75-.21,2.17-7.81.13-.34.16-1-.18-.81-.65.36-3.48,6.6-6.72,5.36-2-.78-1.55-1.15-4.77-3.11a7.35,7.35,0,0,1-3.36-4.29c-1.43-5.13-2.93-5.06-2.7-6.05.34-1.68,1.36-.8,1.36-1.58,0-.17-.44-.37-.82-.2-.8.36-.83.76-1.08,1.12-.59-1.29-1-3.65-.76-3.65,0-1.7-.21-.7,2.39-2,.57-.29.59-.73.88-.57s1.33-.41,2.13-.45c2.68-.11,6,3.37,6.28,3.58,1.82,1.47,5,2.73,6.79,1.2.18-.16.57.25.6-.75a2.12,2.12,0,0,1,1.34-1.75c3.1-.87,3,5.18,1.17,6.23-.79.45-.4,0-1.3.25-.3.08-.1.54,0,.56.71.12.94,4.52.94,4.62-.15,2.84-.23,2.76.13,2.86a2.42,2.42,0,0,0,1.48-.51C130,59,130.28,61.51,131,62.15Zm-2.33-15.24c.09-1.21-2-1.63-2.48.79-.18,1,.21,1.44.84,1.68s.14.52.09.87c-.13.83,1.21.09.85-.89s-1.16-.43-1.16-1.19c0-1,.64-2.05,1.25-1.36a1.55,1.55,0,0,0,.19.24A.27.27,0,0,0,128.69,46.91Zm-7.32,9.34c.38.15.57-.13.39-.43-.65-1.09-2.23-.86-2-.22.11.27.65.11.41.37a4.87,4.87,0,0,1-2.42,1.33c-1,.29-3.57,1.45-3.08,2.29.16.29.69-.57,1.14,0,.18.23.56.23.87.75.43.74.93,1.38,1.75,1.36,2.25,0,2.23-3.79,2.4-5.37C120.91,55.86,121.1,56.14,121.37,56.25ZM117,48.48c.07,0,.88,0,.38-.54a2.08,2.08,0,0,0-2.28-.26c-1,.32-2.13,1.92-3,1.58-.32-.12-.81.58.45.72a1.92,1.92,0,0,0,.8-.26C115.79,47.72,116.28,48.15,117,48.48Zm-2.08,4.18c.37.5,1.22,0,.53-.88C115.15,51.37,114.41,52,114.93,52.66Zm.37,3.52c.06-.2-.13-.57-.44-.33-.75.59-.38.75-1.68.84-.16,0-1.08-.27-.52-.88,1-1.05.84-1.93.34-2.57a.26.26,0,0,0-.45.18c.14.7.45,1.07-.23,1.75C110.27,57.25,114.57,58.42,115.3,56.18Zm-3.48-1.6c.24-.66-.71-1.07-.86-.72C110.63,54.64,111.65,55.05,111.82,54.58Z" fill="#ffceb6"></path><path d="M121.83,99.78c.88.17,6.28,1.37,5.31,1.39-3.56.09-3.43.68-4.81,1.51-2.44,1.46-6.75,12.83-7.07,12.36-1.66-2.46-3-2.67-4.58-4.78-1-1.28-.64-1.23-4.08-3.28-.57-.34,9.34-4.93,11.77-6.21,1.46-.77-2.38-1.81-.92-1.84A30.68,30.68,0,0,1,121.83,99.78Z" fill="#ffccce"></path><path d="M121.84,64.14c.27.46.2.5-3.37,2.78-4.28,2.75-4.64,2.46-7,6.14-3,4.63-6.71,6.93-6.71,8.13,0,.82-.07.71-.69,1.34a28.23,28.23,0,0,1-4.17,3.81.17.17,0,0,1-.14,0c-4.14-2.37-1.31-3.11-9.87,1.88-.35.21-.09-.16-1.26-.7-.32-.15.9-3.23,1.5-5.34C90.58,80.57,93.76,69,93.76,69s1.84-9.77,4.89-12.92a14.59,14.59,0,0,1,6-3.82c.25,0,.42.31.68,2.24-.39,3.87-3.11,7,.25,11.33,1.14,1.47,4.36,3.47,3.79,1.92a5.67,5.67,0,0,1-.41-1.83c1.52,1,1.5,1.32,4,1.66a8.61,8.61,0,0,0,3.28-.08c1.14-.28-.87-1-2-3-.85-1.44.33.9,3.52-.11.88-.29,1.41.69,3.45-.13C121.51,64.14,121.73,64,121.84,64.14Z" fill="#c5cdf3"></path><path d="M120.11,57c.25.88-2.63,1.89-3.55,2.23-.15.05-.53-.18-.64-.23-.46-.2,2.85-1.34,3.35-1.52C119.53,57.35,119.58,57.21,120.11,57Z" fill="#ffffff"></path><path d="M112.3,60.25c1.09,1,5.08,3.28,4.53,3.59-.84.46-2.71-.41-3.48-1.11-.09-.08-.47-.3-.64-.16-.64.54,1.55,3.15,1.72,3.38.92,1.19,1.59,1-.1,1.08-3.37.1-5.14-1.74-7.09-4.35-.4-.54-.78,0-.52.33,1.89,2.81,1.14,1,1.82,4.21a5.14,5.14,0,0,1-2.38-1.9c-2.58-3.19-.86-6.46-.23-9.56.41-2-.42-3.33-.67-4.62-.4-2.12.24-1.94.11-2.48-.09-.35-.37-.22-.87-.52-1.47-.86-1.38-1.16-1.55-2.8-.23-2.1,1.13-2.93,3.09-6.18,1.47-2.45,4.09-5,5.21-4.6a21.9,21.9,0,0,0-1.74,2.71c-.44.83-.38,1-.85,1-2,.12-1.38.86-1.06.77,1.44-.41,1,.07.59,1.37-.14.44-.07.49-.28.52-2,.25-4,1.82-3.63,2.2s.08-.55,3.63-1.55c.21-.06.26.45.26.51a1.62,1.62,0,0,0,.47,1c.58.82-3.09.79-3.85,2.67-.24.58,0,1.45.33,1.35.58-.15-.36-.79.76-1.61.27.68-.68,2.19,2.4,6.93C110.44,55.79,109.41,57.63,112.3,60.25Zm-.72,4.33c.33-.43-.63-.54-1.43-1.89-1.22-2.08-1.11-9.35-2.15-7.31,1,3.41.17,5.45,1.77,7.93C110.09,63.82,111.22,65.06,111.58,64.58Zm-4.39-6.74a2.8,2.8,0,0,0,0-.71c0-.16-.13-.22-.28-.23-.41,0-1.06,3.74-.24,3.57C107,60.41,106.78,60,107.19,57.84Z" fill="#ffa87d"></path><path d="M114.27,115c.7.88.74.87.45,1.58-1.89,4.59-2.58,2.57-14,5.14a38.32,38.32,0,0,1-7.79,1.18c-6.78.11-11.86,1.41-12.46.51-.78-1.17-4.18-3-5.31-3.78-7-5.12-4.37-4.31-12-7.39-1.33-.54-2.94-1.89-4.21-1.56-1.09.29-2,1.18-1.62,2.39.52,1.45,1.25,1.23.6,1.55-1.58.78-.2,2.37-.21,2.39s-.55.66-.52,1.1a2.39,2.39,0,0,0,.57,1.16c.17.24-.47.58.46,1.55.25.26-.11.59.27,1.24,0,0,.07.15,0,.18s0,.28,0,.43-.13.57-.9,2.33c-1.46,3.36-3.67,4.22-9.84,13.82-2.33,3.62-1.43,2.47-2.61,3.89-.37.45-.37.55-1,.52-4-.46-3.15-1.05-5.85-1.78a6.52,6.52,0,0,1-2-.77c-.32-.23-1.54-1.21-1.6-1.31A7.4,7.4,0,0,0,33,137.66c-.65-.63.25.1,3.94-4.95,1.11-1.51,6.31-9.77,7-11.69.16-.49-.41-.59-.6-.28-.54.87-1.59,3.13-4.1,7.12-.46.74-3,4.85-2.75,4.07,2.05-6.14,1.87-6.61,3.16-9.53,4.12-9.42,3.89-7,6.45-15,2.32-7.31,5.65-8.54,11.61-8.64a38.5,38.5,0,0,1,5.92.56c12.46,1.51,15.61,3.46,29.53,8.43,4.58,1.63,7.82,5,10,3.12a5.39,5.39,0,0,0,1.92-3,.64.64,0,0,1,.92-.43c5.11,3.45,1.44.45,5.23,4.63A16.3,16.3,0,0,1,114.27,115ZM46.74,130.26c1.23-4.72,5.15-12.59,4.53-16.11-.05-.32-.6-.46-.66.46-.51,6.78-4,9.85-5.81,21-.31,1.89-.33,2,0,2.11C45.53,138.08,45.85,133.7,46.74,130.26Z" fill="#ff9c9f"></path><path d="M109.79,84.26c.46.42.51.21.14.95-1.79,3.57-1.48,3.58-2,3.44-5.07-1.38-6.24-3.72-6.65-1.31,0,.14-.49-.2-.61-.28s.23-.4.78-.86c.79-.67,2-2,2.54-2.43,2.25-2,1.23-2.27,2.27-1.91A13.62,13.62,0,0,1,109.79,84.26Z" fill="#ffceb6"></path><path d="M151.51,96.67c-.31-2.73-1-7.28-1.6-11.17-.38-2.45-.62-4.67-.87-5.61-.09-.35-.09-.56-.15-.56-5,.44-4.52-.45-7,.85a19,19,0,0,1-2.33,1.3c-.31.11,1.33,11.41,1.43,13.16,0,.47,1.06-.19,1.22.53.2.94-4.46,0-18.18-1.3-5.94-.58-9.7-1.94-15.43-4.27-.24-.1-2.49-.81-4.22-1.54-.71-.3-1.67-1.08-2.12-1.09-.23,0-.42.34-.2.73a3.41,3.41,0,0,0,1.81,1.51c1,.42,1.62.9,2.44.8a8.28,8.28,0,0,1,1-.09.36.36,0,0,1,.24.58.33.33,0,0,1-.25.11c-4.17.33-1.58.17-6.39.93-3.58.58-5,.55-4.71,1.26.08.18.4.28.94.28,2.2,0,9.46-1.18,10.14-.29.23.32-.24.49-2,.76a60.86,60.86,0,0,0-8.4,1.78c-.46.12-.48.28-.43.5.19.74,2.07-.38,10.64-1,.47,0,.4.43.08.55-.82.31-3.22.29-5.06.78a.53.53,0,0,0,0,1c1,.12,2.7-.34,5.45,0a.43.43,0,0,1,.13.81c-1.63.61-5,.75-4,1.45.71.52,3.25-.5,5.78-.48,5,0,7.3-1.1,9.82-.53C144.88,104.13,134,102,143.47,104c3.75.79,4.92.49,5.8.16a3.16,3.16,0,0,0,2.22-3.15A24.38,24.38,0,0,0,151.51,96.67Zm-42.11,1.7a.39.39,0,0,1-.27-.1c-.57-.49-.19-.87-.59-1.46-.58-.82.08-1.32-.21-2-.13-.29-.53-.61-.35-1.21.38-1.33-.77-1.38,0-2.93l.06-.09c.15-.17.41-.22.45,0s-.07.51-.14.94.16.6.25,1c.27,1-.23,1.29.06,1.64.81.94,0,1.41.41,2.2s.2.85.53,1.45C109.84,98.19,109.63,98.37,109.4,98.37Z" fill="#ffceb6"></path><path d="M89.47,148.85c.88.15,1.7.2,1.64.32-.23.43-7.27,13.26-9.74,17.55-.2.35-.28.57-.71.62a25.27,25.27,0,0,1-2.75-.09c-.47-.07-.33-.44-.25-.74.31-1.16,2-4.86,3.42-8.53,3-7.56,3.12-8.74,3.76-9.7C85.05,148.07,89.06,148.78,89.47,148.85Z" fill="#fff5db"></path><path d="M75,120.65c.2.13,5.39,3.2,4.58,3.31s-1.48.36-2.25.47c-2.48.37-3.44.34-3.86.41C70,125,64.32,127,59.78,122.25c-1-1.06.29-1-.84-2-.28-.24-.22-.31-.06-.66.3-.69-.36-.64-.56-1.13-.45-1.1,1.53-.61.2-2-.19-.19-.49-.68-.23-1s.24-.17,1.85.73c.52.3,1,0,.82-.41-.34-.62-3.85-2.75-2.4-4,.82-.68,1.72-.06,2.44.27C74,118.09,68,116.13,75,120.65Zm-13.3-1.18c1.16-1.84-.5-2.78-.46-1.35,0,1.09-.94,1.58-.81,2.93-.12.4.41,1.79.63,1.63.43-.32.36-.31.31-.47A3.19,3.19,0,0,1,61.73,119.47Z" fill="#fff59e"></path><path d="M78.58,94.29c-.11,0-9-2.63-13.5.2-.53.33-.53.33-.38.93a5.29,5.29,0,0,0,.28,1c.36.77,0,.63.26,1.34a1.52,1.52,0,0,1,0,.94c-.07.26-1.92-.5-3.95-.61-1.46-.08-1.57.08-2-.53-.52-.79-.88-4-1.28-5.17-.87-2.44-1.88-5-.93-7.47,1.46-3.75,1.71-4.25,3.27-5.53,3.66-3,7.77-.67,10.59.12a10.5,10.5,0,0,1,3.7,2.33c4,3.48,2.83,2.32,2.24,2.5,0,0-2.3-.06-2.83-.11-1.15-.12-6.47.11-5,.88,1,.56,1.46.26,2.85,1.12.8.49,1.29.27,3,1.37A17.39,17.39,0,0,1,77,89.2c1.06,1.2.25,0-3.74.56a18.77,18.77,0,0,0-5.86,1.6c-.45.22-.17.7.25.66a29.63,29.63,0,0,1,3.13-.21C75.54,91.93,78.42,94.05,78.58,94.29Z" fill="#ff9c9f"></path><path d="M43.68,144.16c.16,0,.29.24.22.39s-.87,1.58-1.24,2.12c-1.86,2.73-1.78,3.5-2.58,3.45a15.78,15.78,0,0,1-3.73-.72,14.89,14.89,0,0,1-4.24-2c-.64-.53-.18-.76.45-2.71,0,0,1.49-4.14,1.64-4.38.37-.56-.65.3,4.82,2.25C40.62,143.18,42.54,144.18,43.68,144.16Z" fill="#ffceb6"></path><path d="M40.84,151c.53.26-.22.52-.59,1.95-.07.3-.13.57-.69.5a1,1,0,0,1-.47-.19c-.2-.15.1-.09.56-1.46.14-.39-.17-.67-.42-.4a13,13,0,0,1-.84,1.67c-.26.25-1,0-2-.3-.46-.15-.28-.16.2-1.49,0-.1.06-.55-.2-.52-.45.06-.57,1.36-.91,1.55-.09,0-.38-.12-.54-.14s-.14-.3-.1-.42c.92-2.1.24-2,1.21-1.7,1.48.43,1.68.43,1.56.69a12.24,12.24,0,0,0-.41,1.61c-.07.39.38.43.54,0,.57-1.53.39-1.55.58-1.67s.37-.07.54,0C39.75,150.92,40.29,150.69,40.84,151Z" fill="#fff59e"></path><path d="M37.89,153.9c.54.09,1.33-.53-1.36,4.11-1.32,2.28-.72,2.39-1.58,4.7-1.5,4,2.85,9.78-9.87,7.63a5.4,5.4,0,0,0-2.35,0c-4.8.5-5.67,2.39-8.12,1.78-1.46-.36-.82.23-2.94-.47-.3-.1-.31-.17-.24-.5,0-.13,0-.29.12-.38.28-.29-.09-.67-.52-.53s-.4.61-.42.69c-.09.29-.3.13-1.21-.11A3,3,0,0,1,8.23,170c-.64-.74-2.8-.22-2.28-3,.09-.51,1.1-.49,1.36-.45,1.7.28,5-.65,5.58-.68,3.83-.21,7.19-4,9.51-4.59,2.06-.54,2.26-1.9,2.7-2,0,0,1.56-1.66,1.77-1.9.74-.85.26-.85,1.55-2.9.39-.62.3-.62,1.49-3.64.1-.25.16.08,2.27,1.11.91.44,2,.44,3.79,1.31A6.17,6.17,0,0,0,37.89,153.9Z" fill="#fff59e"></path><path d="M34.14,149.47c.1-.23.63.08.6.37a7.29,7.29,0,0,1-.62,1.81c-.06.18-.25.09-.25.09a5,5,0,0,1-1.53-.42c-.55-.3-.11-.67.1-1.36.15-.49,0-.56-.17-.61-.44-.11-.54,1.65-.92,1.41s-.49-.31-.28-.67c.85-1.5-.24-2.42,1.91-1.23.64.36.62.26.21,1.57-.16.53.4.64.55.23S34,149.76,34.14,149.47Z" fill="#fff59e"></path><path d="M31.08,147.39a4.22,4.22,0,0,1-.4,1.93c-.08.22-.3.48-.4.73s-.33-.26-.48-.38.13-.23.21-1.33a1.38,1.38,0,0,1,.48-1.09C30.72,147.09,31,147.09,31.08,147.39Z" fill="#fff59e"></path><path d="M118.4,61.09c-.28-.1-.4-.82.3-1.59C121.12,56.81,119.47,61.47,118.4,61.09Z" fill="#ff9c9f"></path><path d="M193.79,126.45c-1-1.82-5-1.35-7.62,1.15a6.57,6.57,0,0,0-1.93,2.32,3.6,3.6,0,0,1-.17-1.77c.39-2.91,3-4.41,4.19-8.74s-.74-8.12-2.15-9.12c-.37-.26-2.07-1.19-2.53-1-2.06-.2-5.74,1.78-7,4.65-3.05,7-.15,7.6-3,5.9-3.29-2,.21-5.83,2.25-13.72a13.62,13.62,0,0,0,.11-2.66,6.06,6.06,0,0,0-5.46-6c-.79-.13-1.68-.08-3.94,1a7.22,7.22,0,0,0-3.32,3.32,13.65,13.65,0,0,0-1.13,6.22,22.31,22.31,0,0,0,.84,4.31c.12.45-.54.18-1.29.45a5.72,5.72,0,0,0-3.52,3.75c-.87,2.18-.34,2.14-1,4.42a9.32,9.32,0,0,0-.11,3.49c.73,3.65,4.38,2.92,3.22,5.57-.26.6-1.81-3.39-6.21-2.2-.76.2-1.09.52-2.33,2-2.19,2.65-.93,7.44.89,9.26,3.94,3.91,4.28,3.36,3.28,4.21-.6.51-.9.77-.93,1.4a15.28,15.28,0,0,0,0,2c.25,5.41.53,4.66,1.21,5.33.12.12.11-.26.65,5.15.39,4,2.25,13.16,1.88,13.8s-.61-.33-.33,4.11c.09,1.38.19,2.88,1.38,3.28a32.56,32.56,0,0,0,8.85,1.28,61,61,0,0,0,9.86-.6,5.6,5.6,0,0,0,2.27-.77c.84-.58,1.49-6.59.44-7.13-.62-.33,1.86-15,1.81-18.46a.22.22,0,0,1,.14-.16c1.65-.66,1.2-4.52,1.51-5.88.51-2.2-.4-3.5-2.52-4.39,5.14-1.3,3.82-2.5,6.31-3.3C195.07,136.92,196.3,130.9,193.79,126.45Zm-17.35-9.72c.91-2.29,1.22-3.87,3.45-5.23,1.19-.73,2.75-1.67,4-1.25,1.56.52,3,1.4,3.65,4.63,1.33,7.08-4.78,9-4.34,14.62.16,2.12,1.21,2.71-.72,5.57-1.57,2.33-6.43,3.88-5,9.94.22.91.45,1,0,1-.15,0-1.46,0-1.65,0-.35-.06-.67.2-.8-.14-.26-.67-1.84-3.23-1.75-5,0-.57.22-1.22,2.17-2.91a4.85,4.85,0,0,0,1.34-4c-.13-1.4-.53-1.6-.32-3,.38-2.49,1.9-2.38.31-7.84a11.22,11.22,0,0,0-1-1.91A9.82,9.82,0,0,1,176.44,116.73ZM163,106.79a9.82,9.82,0,0,1,1.36-5c2.44-4,7.93-4.6,9.91-.9,3.72,6.73-7.09,16.19-.94,20,1.16.71,1.94.93,2.39,2,2.28,5.56-.34,5.76-.17,9,.07,1.28,1.51,3.62-1.2,5.87-1.87,1.66-1.9,2.82-1.72,4.22.11.83.34,1.16,1.34,3.63.36.9.36.38-2.11.63-.17,0-.54-1.3-.51-1.94.1-2.2-1.47-3.3-1.46-4.46,0-2.89,4-3.23,2.22-8.28-.39-1.1.22-1.45.62-3.35.32-1.48-.63-4.9-2-6a16.89,16.89,0,0,1-1.8-2.27c-.41-.53-.21-.75-.41-1.59-.86-3.67,2.1-8.57,1.22-13a1.65,1.65,0,0,0-.33-.91c-.16-.21-.72-.23-.59.34,1.25,5.14-1.7,7.35-1.18,13.5.43,5.15,5.83,4.31,3.61,11.5-.66,2.15,1.32,3.66,0,5.57-1.58,2.25-3,3.87-1.77,6.06,1.66,2.84.82,2.67,1.22,4.17.16.63.45.71-.25.74-1.45.05-1.34.22-1.38-.27-.38-4.18-1.14-3.19-2.68-5.38-.86-1.22.37-2.25,1.42-3.45,4-4.54,3-9.22.2-11.23-.63-.45-.84-.27-2.07-.88-1.52-.76,2.1-3.83.87-8.39-.2-.77-.57-2.87-2.56-3.75-.24-.1-.33-.3-.42-.68C163.3,110,162.9,109.59,163,106.79ZM161,130.65a2.74,2.74,0,0,0,.15-2.51,8.52,8.52,0,0,0-1.88-1.69c-1.15-.9-1.88-2.2-1.36-4.87.44-2.25.43-4.39,1.69-6.33,1.67-2.59,6.08-3,6.48,3.2,0,4.35-3.92,6.93.74,8,1.67.39,3,3.26,2.69,4.74-1,4.92-1.6,4-3.87,7-2,2.66,1.94,4.07,2.32,6.24.44,2.48.16,2.09-2.15,1.88-.32,0-.23-.5-.52-1.94a5.6,5.6,0,0,0-1.22-2.86c-.71-.73-1.83-.8-1.88-2.71-.13-4.67,2.57-1.12,3.88-7.32a3.84,3.84,0,0,0-.16-2.87,3.08,3.08,0,0,0-1.36-1.06c-2.12-1-2.59-1-2.81-2.46-.3-1.86.94-2.93.93-5.18,0-1.23-.74-.94-.73-.42.06,2.39-1.49,3.5-.81,6.37.55,2.36,5,1.6,4.39,4.76-1.09,5.44-3.22,4-3.76,6a5.06,5.06,0,0,0,.53,4.39c.41.55,1.29.56,1.79,1.79.21.52,1.12,3.46.57,3.37-.31,0-2.42.19-2.78-.36-1.2-1.83-.52-2.38-1.16-3.41-1-1.69-4.28-3.63-3.34-6.38a5.85,5.85,0,0,1,1.63-3.46C159.77,131.92,160.56,131.69,161,130.65Zm-8.64,6.65c-2.64-5.68,1.12-8.84,3-8.77a4,4,0,0,1,2.11.63,4.1,4.1,0,0,1,1.9,1.72c.13.16,0,.17-.66.7a7.15,7.15,0,0,0-2,2.75c0-.06-.59-3.23-1.22-2.94-.12.06-.29.08-.31.29a1.15,1.15,0,0,0,0,.58c.54,1.12.38,2.37,1.07,3.46.23.36-.22,1.41.14,2.49.84,2.54,2,2.77,3.11,4.22.89,1.13.29,1.66,1.15,3.41.14.28-.15.14-1.48.08-.47,0-.35-.22-.94-1.77C157.22,141.13,153.19,139,152.4,137.3Zm4.42,6.35c.44-.28,1,1.37,1.17,1.89.09.29-.29.15-1.33-.12-.35-.09-.9-.27-.86-.74S156.43,143.91,156.82,143.65Zm24.42,29.1c0,.21-.36,3.76-.47,4.35-.14.79-.57.83-1.94,1.16a47.34,47.34,0,0,1-9.11.69c-4.66,0-9.36-.59-10.22-1.56-.4-.46-.57-3.62-.59-3.87,0-1.44-.27-.37,2.59-.08a44.94,44.94,0,0,0,8.74.5,80.13,80.13,0,0,0,9.75-.74C180.89,173.06,181.22,172.32,181.24,172.75Zm-1.32-.9c-.1.68-.23.63-.51.66-9.66,1.1-17.25.45-19-.17-.45-.16-.41-.68-.52-1.27-.62-3.48-2.8-15.55-2.8-18.42,0-.34.52.3,5.79.58a156.6,156.6,0,0,0,19.2-.42C182.75,152.71,180,171.2,179.92,171.85Zm4.12-26c0,.65-.5,5.72-.95,5.83-2.6.61-8,.64-11.62.77a89.6,89.6,0,0,1-12.26-.38c-3.17-.32-3.23-.5-3.48-5.94,0-.44.12,0,1.57.31a60.7,60.7,0,0,0,12.67.74c1.59-.34,7.63.06,12.73-.79C183.61,146.25,184,145.53,184,145.86Zm-1.18-.44c-.33.1-2.33.61-2.32.12a5,5,0,0,1,.19-2.39c.25-.46.43-.32.73-.24C182.85,143.26,184.75,144.83,182.86,145.42Zm9.81-10.18c-2.24,3-4.85,2.49-6.22,4a6.08,6.08,0,0,1-2.61,1.73,13.37,13.37,0,0,0-2.91.92c-2,1.12-.8,4-1.54,4s-.73-.06-.89-.65c-1.27-4.59.9-5.84,3.2-8,3.89-3.72,2.51-5.38,2.83-6,2.47-4.92,7.71-6,8.65-4.3A7.37,7.37,0,0,1,192.67,135.24Z" fill="#000001"></path><path d="M190.66,128.58c-.8.4-.58,1.78-1.5,2.95-.51.63-1.8,1.27-2.77,2.21-1.46,1.43-1,1.77-2,2.91-1.22,1.31-2.34,1.09-3.38,2.82-.87,1.44,0,1.79.39.77.78-1.83,2.28-1.62,3.63-3.12,1-1.11.85-1.76,2-2.81,1.57-1.46,2.51-1.53,3.12-2.82.72-1.55.48-1.91,1-2.47C191.22,128.81,191.1,128.36,190.66,128.58Z" fill="#000001"></path><path d="M178.33,132.79a.28.28,0,0,0,.35-.12c2.44-4,.44-5.19.94-7.7.78-4,1.54-1.8,2.16-7.57.19-1.73.21-2.08.44-2.47,1.5-2.57-.33-2.69-1,.26-.25,1.06-.36,3.13-.56,4.13-.5,2.54-1.59,3.11-1.86,5.38s.32,3.11.3,4C179,131.16,177.58,132.46,178.33,132.79Z" fill="#000001"></path><path d="M132.38,144a31.71,31.71,0,0,0,5.39-.5c2.86-.62,3.41-3.36,7.56-11.08,8.41-15.67,12.36-21.45,13.33-24.35a4.64,4.64,0,0,0-.71-4,6.23,6.23,0,0,0-3.15-2.38c-.4-.16,8.38-19.71,8.5-20.89,1-1.83,2.31-7.23,2.57-9.65a9.54,9.54,0,0,0-.12-3.08c-.3-.51,1.95-1.86,2.31-5.77.2-2.19,0-.55-.07-2.65a8.44,8.44,0,0,0-.71-3.61c-1.35-3-.47-1.42-3.9-5.55-1-1.18-1.79-1.29-2.27-1.8-1.31-1.4-2-.4-2-2.92-.15-4.1-2.11-5.86-2.22-7.46a12.91,12.91,0,0,0-4.37-8.28c-.46-.34.16-.36-.23-.7a18.05,18.05,0,0,0-4.88-2.4c-4.65-1.81-2.84-1.09-3-3.4,0-.56.47-.73.37-1.06,0-.06-.11-.12-.46-.12-.11,0,0-.14.11-.28s.42-.42.34-.85-1.1.3-2.74-1.85c-1.15-1.51-1.19-1.53-1.2-1.67a8.72,8.72,0,0,0-1.57-5.25c-.26-.4-.6-.17-.8.1-.45.6-.92,1.15-1.23,1.56-1.19,1.6-1.27,1.83-1.33,2.28,0,.1-.07.26-.35.3a6.52,6.52,0,0,0-2.38.92c-.53.38-1.06,0-2.34-.25a5.32,5.32,0,0,0-2.54.21c-1.09.25-.24.58,1.56,4.2.22.44.29.4.29.41a4.67,4.67,0,0,0-.13,1.53c0,1.3.16,1.9-.41,3-.06.14,0,.21.07.32.33.47.67,0,.7.51s.4.41.68.3.17.16.89.74,1,.6,1,.8a6.33,6.33,0,0,0,.14,4c.2.46.62,1.26.32,1.66-1,1.37-1.45,1.69-1.64,2-1.42,2.54-.35,3.55-.47,4.4-.6-.39-1.47-2.78-1.71-3.53a10.49,10.49,0,0,0-17.34-4.49c-.72.66-2.87-1-6.67,5.11-2.24,3.61-3.6,4.59-3.37,6.78.41,4,2.51,2.81,2.23,3.94s.5,1.85-.13,2c-3,.88-7.46,4.35-8.69,8.34,0,0-2.07,6.2-2.23,7.32C92.91,70,88.26,85.22,88,86.53c-.23,1,.07.43-3-.7a34,34,0,0,0-5.8-1.25c-.74,0-4.51-5-8.47-6.07-2-.53-2.87-1.25-4.92-1.41-4.23-.32-7.51,2-8.52,4.84-.84,2.32-2,3.57-1.32,6.93a35.16,35.16,0,0,0,1.32,4.21c.44,1.38.48,3.1.7,3.81.28.9,1.16,1-1,.81a13.4,13.4,0,0,0-4.64.71c-1.22.22-2.94,1.66-3.88,2.49-2.82,2.51-3,7.86-7.42,16.32-5.15,9.93-4.45,16.07-8.61,19.21-1.17.88-.19,1.68,1.07,2.77.18.15.29-.11-.89,3.2-1.39,3.88-1.31,3.81-1.74,3.95-1.83.59-1.29,2-1.71,2.81s.37.9.16,1.28c-.64,1.13-1.15,3.07-1.54,3.62-.93,1.27-.78,1.9-1.54,2.76-2.39,2.72-2.83,3.27-3.38,3.44-3.52,1.07-6.25,4.38-9.35,4.72a27.49,27.49,0,0,0-3.85.64c-1.85.38-4.76-.78-4.65,2.3.09,2.38,2.26,2.07,3,3A4.42,4.42,0,0,0,10.47,172c.55.1.11.59,2.38,1,4.83.81,2.94-.35,10-1.7a7.16,7.16,0,0,1,2.82.09c2.4.23.9-.09,4.22.24a4.24,4.24,0,0,0,2-.15c.9-.39,3.57.26,3.55-5.77,0-2.82.56-3.11.76-4.34.42-2.61,1.64-3.56,2.17-4.93.9-2.29.82-2.3,1.17-2.26,1.56.18,1.11-1.24,2-2.43.69-.94-.29-1.22,0-1.63,14.69-22.84,14.42-20.39,14.43-20.36a32.74,32.74,0,0,0,2.4,3.45c.16.25-15.3,42.31-16,43,.09.8-1,1.29-.14,2.33a12,12,0,0,0,2.07.2,3,3,0,0,0,2.71-.5c.5-.6,17.1-30.6,18.44-32.92,1.87.29,16.43,2.64,18.1,2.85.64.08-6.71,18.28-6.87,18.7a1,1,0,0,0-.07.73c0,.17.11.49,1,.61a18.08,18.08,0,0,0,2.94.12,1.3,1.3,0,0,0,1.11-.54c.31-.38,7.94-14,7.95-14.06,2.85-5,2.18-4.55,3.11-4.35,0,0,6.09,1,6.17,1s.25.13.4.15c.86.07.3,22.4,1.38,36,.12,1.5,4.7,1.91,4.93.1.79-6.35,1.93-26.46,2.89-32.61.34-2.2,0-2.59.65-2.56.29,0,.82.06,1.67.18,7.2,1,8.33.77,14,1.33.84.09,13.36,24,14.6,25.24.57.57,3.34.15,3.56.17,4.39.4-3.8-8.36-11.28-33.91C131.58,144,131.86,144,132.38,144Zm32.73-74.68c-.31,7.27-2.61,11.67-10.45,30.18-.86,2-.63,1.94-1.22,1.83-1.16-.23-1.2-.05-1.13-.78a23.12,23.12,0,0,0-.09-4.92c-2.86-18.62-2.39-13.75-1.41-15.7.41-.81.2-.91-.45-3.07-.48-1.56,6.43-13.51,3.27-19.55-.9-1.71-1.8-1.25-1.24-.54,3.69,4.68-1.21,13.84-2.5,18.4-2.47-5.48-.95-10.85-4.32-12.88-4.87-2.92-4.08-2.75-11.47-1.9-2.2.25-1.23-.1-2.54-.06-.79,0-.51.54-1.27-1.46-.1-.29.45-.53,1.28-1.95.08-.13.1,0,.1,0,0,1.47-1.22,3.39.21,3,4.32-1.11,4.26-5.83,3.81-1.17-.07.66.38.4.64.32a7.91,7.91,0,0,0,4.41-9.45c0-.16,0-.24.14-.21.37.07,2.57.21,2.59.22,1.26.24.3,4.3,4.61,3.69,1-.15,1.31-1,1.74-1.86s-.11-1.18,2.82-.17c6.47,2.22,5.45,4.9,7.29,6.48.9.77.77,1.81.77,2.72,0,5.16-6.12,5.15-6.15,8.39a3.68,3.68,0,0,0,.34,2.24,3.79,3.79,0,0,0,2.89,1.47c1.08.11,2.11-.31,5-2C164.9,69.52,165.17,68,165.11,69.36ZM151.49,101a3.16,3.16,0,0,1-2.22,3.15c-.88.33-2.06.7-5.8-.16-9.47-1.78,1.41.18-24.25-5.53-2.55-.57-4.79.58-9.82.53-2.53,0-5.07,1-5.78.48-1-.7,2.41-.84,4-1.45a.43.43,0,0,0-.13-.81c-2.76-.31-4.45.15-5.45,0a.53.53,0,0,1,0-1c1.84-.49,4.24-.47,5.06-.78.32-.12.39-.59-.08-.55-8.57.62-10.45,1.74-10.64,1,0-.22,0-.38.43-.5a60.51,60.51,0,0,1,8.4-1.78c1.76-.27,2.23-.44,2-.76-.47-.61-4.58-.21-5.33-.13-1.25.15-3.57.42-4.81.42-.54,0-.86-.1-.94-.28-.39-.87,1.84-.63,8.23-1.87a27.13,27.13,0,0,1,2.87-.32.35.35,0,0,0,0-.69,8.28,8.28,0,0,0-1,.09c-.82.1-1.41-.38-2.44-.8a3.41,3.41,0,0,1-1.81-1.51c-.22-.39,0-.74.2-.73.45,0,1.41.79,2.12,1.09,1.73.73,4,1.44,4.22,1.54,5.73,2.33,9.49,3.69,15.43,4.27,13.72,1.32,18.38,2.24,18.18,1.3-.16-.72-1.19-.06-1.22-.53-.1-1.75-1.74-13-1.43-13.16a19,19,0,0,0,2.33-1.3c2.48-1.3,2-.41,7-.85.06,0,.06.21.15.56.25.94.49,3.16.87,5.61.61,3.89,1.29,8.44,1.6,11.17A24.38,24.38,0,0,1,151.49,101ZM76.85,97.57a45.49,45.49,0,0,0-6.68-.46,14.48,14.48,0,0,0-3.78.49c-.47.19-.54.16-.59,0a1,1,0,0,1-.11-.5c0-.17.06-.2.23-.24a26.38,26.38,0,0,1,3.69-.49c4.47-.19,5.52.14,6.54.33.79.15,1,.37,1.22,0,.34-.59-3.3-1.07-6.9-1a27.57,27.57,0,0,0-4.44.51c-.22,0-.42.22-.53-.19,0-.17-.06-.24,0-.3a.77.77,0,0,1,.29-.1,23.94,23.94,0,0,1,6.92-.58,32.35,32.35,0,0,1,6.92,1.2c.32.1.45.18.48.26S80,97,80,97a1,1,0,0,1-.34-.09c-1.84-.63-1.4.27-1.17.34.68.2.4.09,1.3.37a4.35,4.35,0,0,1-1.23,1.59c-.62.42-.76.34-1.84.1a24.92,24.92,0,0,0-10-.3c-.36.09-.49.14-.66-.19s-.22-.51.27-.68c1-.33,3.59-.86,9.61-.18,1.49.17,2.36.64,2.43,0C78.32,97.84,77.65,97.7,76.85,97.57Zm2.76-2.45c.21,0,.45.54.45.73-.4,0-6.6-2.53-13.39-.81a7.59,7.59,0,0,0-1.21.32c-.13.08-.16,0-.18,0a.59.59,0,0,1-.07-.37c.23-.55,3.51-1.12,4.27-1.17A31.46,31.46,0,0,1,79.61,95.12Zm-8.93-3.87c-.52,0-1.27.06-1.21,0,.17-.26,1.34-.48,1.61-.54a19.15,19.15,0,0,1,6.1-.31c.4.08.79-.09,1,.6C80.18,96.81,79.22,91.41,70.68,91.25Zm-.14,8a28.71,28.71,0,0,1,7.15.92c.16,0,8.73,4.07,7.15,3.56-6.07-2-5.94-2.66-12.11-3.76C70,99.48,67.8,99.29,70.54,99.25Zm9.2,1.08,0,0c-.9-.41-1-.42-.62-.8a4.44,4.44,0,0,0,1.55-3.74c-.12-.46.12-.2,3.52,1.52,19.17,9.66,19.78,9.88,20.15,10.31.16.19-.39,1.53-1.32,2.34a2.19,2.19,0,0,1-2.82.44c-1-.41-2.67-1.55-7.24-3.68-2.12-1-3.3-1.68-6.75-3.3C79.59,100.32,79.72,100.33,79.74,100.33Zm22.86,5.41c-4-2.16-21.58-10.61-21.69-11,0-.11.57-.34,2.17-1.25,3.21-1.83,6.69-4.61,11.32-7.1,2.84-1.53,1.69-1.7,4.15,0a31,31,0,0,0,3.09,2c1.56,1.66,3.15,1.69,2.57,1.82-6,1.38-9.26.89-8.71,2.75.37,1.26,3.13.49,7.47.18.82-.05.8.06.44.13a66.94,66.94,0,0,0-6.61,1.51c-1,.31-1,.67-1,1.1a.82.82,0,0,0,.75.77,33.83,33.83,0,0,0,4.48-.58s.09.06,0,.2c-.34,1.08.24,1.62,1.12,1.56a21.64,21.64,0,0,1,3.68-.18c-.36.17-1.61.36-2.5.66a.89.89,0,0,0-.15,1.68c1.18.77,2.41.17,4.16-.08,3.54-.5.41.17,7.27-.63,1.1-.12,1.39-.19,1.56-.07,1.68,1.21,1.55,1.12,1.35,1.22,0,0-.14.11-8.33,4.12C103.31,107.46,106.2,107.66,102.6,105.74ZM108,50.33c.37-1.68,1.36-.8,1.36-1.58,0-.17-.44-.37-.82-.2-.8.36-.83.76-1.08,1.12-.59-1.29-1-3.65-.76-3.65,0-1.7-.21-.7,2.39-2,.58-.29.59-.73.88-.57s1.33-.41,2.13-.45c2.68-.11,6,3.37,6.28,3.58,1.82,1.47,5,2.73,6.79,1.2.18-.16.57.25.6-.75a2.12,2.12,0,0,1,1.34-1.75c3.1-.87,3,5.18,1.17,6.23-.79.45-.4,0-1.3.25-.3.08-.1.54,0,.56.71.12.94,4.52.94,4.62-.15,2.84-.23,2.76.13,2.86a2.42,2.42,0,0,0,1.48-.51c.5-.34.78,2.22,1.53,2.85a.23.23,0,0,1,0,.35,22.74,22.74,0,0,1-2.28,3.11c-1.84,1.77-1.88,2.32-3.75,4.56-3.2,3.83-4.74,2.07-4.32.7,0,0,.76-1.91,1-2.86.13-.46.88-1.7,1-1.36.21.61.17.9.5.91s.39-.19.31-.52c-1.33-5.18-.75-.21,2.17-7.81.13-.34.16-1-.18-.81-.65.36-3.48,6.6-6.72,5.36-2-.78-1.55-1.15-4.77-3.11a7.35,7.35,0,0,1-3.36-4.29C109.22,51.22,107.74,51.35,108,50.33Zm14.51,15.32c.14.34-.88.56-1.37,2.15a24.89,24.89,0,0,1-1,2.89c-.71,1.89,1.63,5.1,6.48-1.28a22,22,0,0,1,2.2-2.77c1.88-1.71,2.1-3,3.25-4.21.34-.36.28-.9-.14-.81s-.27.22-.66-.39c-.13-.21.91-.15,1.16-.1a44.57,44.57,0,0,0,5.84-.38c4-.33,3.61.55,5.47,1.36,2.14.93,2.79,1.76,3.31,3.7.38,1.41.41,3.35,1.15,6.41.4,1.64,1.11,3.64,1.85,6,.16.51.37.55-.24.43a27.25,27.25,0,0,0-3.38.19,9.59,9.59,0,0,0-2.56-.08c-1.78.36-2.14.88-4.07,1.9-.89.47-1.49.49-2.08.91-.08.06-.11,0-.12-.05-.29-3.2-.77-3.2-.55-5.47.25-2.54-.42-4-.38-7.93a27,27,0,0,1,.94-4.64c0-.18-.13-.19-.25-.25-.43-.18-1.81,3.44-1.2,8.38.42,3.41,0,5,.17,6.31.31,2.44.35.69.56,3.49.08,1.18-.07,1.68.76,2.06,1.31.61,1.49.4,1.49.76,0,.76.42,3.57.43,3.84.07,1.31-2.31,4.49-3.14,6.19-.1.2-1.37.11-2.71,0-10.45-1.23-13.47-.68-24.29-5-.25-.1-.22-.27-.1-.57s1.3-2.72,1.79-4.18a5.56,5.56,0,0,0,.29-1.46,12.82,12.82,0,0,1,.1-3.6,2.8,2.8,0,0,0,.13-.64c.15-1.69.93-1.31,5.37-5.27.83-.75,3.59-4.93,3.35-5.75-.19-.67-1.35,1.68-1.61,2.14-2.85,5.05-7.16,6.06-7.7,7.77a12.59,12.59,0,0,0-.52,4.15c0,3.41.72,1.71-4-.88-.51-.29-.47,0,1.35-2.17,0,0,.92-1,1.16-1.21a23,23,0,0,0,2.65-3.29c1.47-2,2.1-3.44,4.09-4.64C122.65,64.94,122.28,65.19,122.47,65.65Zm17.17,24.56c.18-.33.56,3.6.56,3.76,0,1.07.66,1-2.93.55C137,94.48,137.05,94.91,139.64,90.21Zm-33.35-8.35a13.62,13.62,0,0,1,3.5,2.4c.47.42.51.21.14.95-1.79,3.57-1.48,3.58-2,3.44-5.07-1.38-6.24-3.72-6.65-1.31,0,.14-.49-.2-.61-.28s.23-.4.78-.86c.79-.67,2-2,2.54-2.43C106.27,81.76,105.25,81.5,106.29,81.86Zm12.08,18.91c1.46-.77-2.38-1.81-.92-1.84a30.68,30.68,0,0,1,4.38.85c.88.17,6.28,1.37,5.31,1.39-3.56.09-3.43.68-4.81,1.51-2.44,1.46-6.75,12.83-7.07,12.36-1.66-2.46-3-2.67-4.58-4.78-1-1.28-.64-1.23-4.08-3.28C106,106.64,115.94,102.05,118.37,100.77ZM142.5,49c-.3,0-.34-.07-.37-.36-.13-1.34-.33-1.5,1.3-2.5a.86.86,0,0,1,.28-.11c.22-.06.28,0,.28.27C143.37,49.56,144.52,49.14,142.5,49ZM161,66c.45-.29.53-.31.53-.29,0,.32,0,.5,0,.68.05,1.11,2.05-1,1.85-.58-.11.23-.37.71-.66,1.19-.15.26-.25.59.25.41s.68-.34.7-.27-.61,1.11-.05,1,.46-.2.91-.19c-.86,1.36-5,3.87-6.67,3.86a2.43,2.43,0,0,1-2.09-4c.38-.44.26-.16,3.11-2.28a1.15,1.15,0,0,1,.63-.37,5,5,0,0,0,1.08-.42c.14-.06.26,0,.2.15C160.67,65.33,160.37,66.31,161,66ZM134,35.66c1-1.49-1.34-2.89-.36-6a2.19,2.19,0,0,0,0-.51.57.57,0,0,0-.42-.65c-1.47-.64-1.46-1.43-1.76-1.46s-.12-.63-.73-.52c-.42.06.05-.14,0-2.58-.07-2,0-2-.21-2.35s-.4-1.08-1.46-2.8c-.36-.57-.37-.54.29-.71a4.13,4.13,0,0,1,2.55.28c.21.08.05.21-.29.6-.94,1.05-.92,2-.22,1.19a11,11,0,0,1,1.42-1.39,6.31,6.31,0,0,1,4.83-1.38c.79-.09.15-.57-1-.76-.14,0,.36-1,.62-1.4a13.79,13.79,0,0,1,1.43-1.63c.27-.28.31-.31.46,0a8.48,8.48,0,0,1,1,3.67c0,.2-.06.25-.3.28s0,.5.21.69c1.11,1,1.57,2,2.49,2.84a1.86,1.86,0,0,0,1.22.59c.18,0,.35,0,.31.13-.12.35-1,.55-.55.94a.53.53,0,0,1,.28.46,5.79,5.79,0,0,1-.52,2.56c-.27.58-.11.73,0,.77a.49.49,0,0,0,.5-.2c.15-.39,0,.17,4.69,1.89,3.41,1.26,1.91,1.17,2.5,1.63,5.93,4.67,4.62,8.67,5.58,10.25,2.3,3.8,1.23,6.72,2.57,8.26.41.48.44.07,1.13.83s1.42.68,2.71,2.17c2.37,2.75,2.78,2.29,4.1,6.43.18.58,0,.24.33,3.4.17,2-1.43,5.45-2.08,5.71-.45.18-1.12.49-1,.12s.56-.88-.55-.4c-.32.13,0-.31.32-1.22.1-.31-.1-.46-.38-.29s-1,.65-1.69,1c0-.3.06-1-.05-1.08s-.34.16-.61.27c-.44.18.33-1,0-1.36s-.42,0-1.17.44c-.5.29.71-.92,1.1-2a10.3,10.3,0,0,0,.07-3.33c-.2-1.49-1-1.39-1.95-3.23-1.94-3.71-3.75-3.75-6.16-4.92a13.64,13.64,0,0,0-2.87-.74c-.16,0-.21,0-.39-1.13-.48-3-.67-3.36.25-5.68a3,3,0,0,1,2.57-1.61c1.17,0,1-.7.75-.81s-.26-.1-1.74.13c-1.29.2-1.19,1.6-.39-2,.36-1.6,0-4.13-.53-4.24-.11,0-.45,0-.38.1s-.07.29,0,.43a7,7,0,0,1-.11,4.54c-.14.38-.24,1.09-.35,1.41a20.2,20.2,0,0,0-1.21,4c-.25,2.09.63,4.41.55,5.11s-.64-.92-.9-.14c-.17.52.39.72.43,1.23a1.53,1.53,0,0,1-.21.6c-.25.56-1.21-2.26-1.4-.76-.06.47.91,1.37.33,1.41-.13,0-.49,0-.57-.1a6.17,6.17,0,0,1-.53-1.17.5.5,0,0,0-.39-.25c-.52.09-.14.78,0,1.11s0,.24-.08.22c-.63-.43-1.07-1.06-1.52-3-.52-2.14.66-4.35.52-6.51-.05-.59.1-3.75.1-3.77.1-1.25-.49-1.91-.85-3-.17-.52-.75-.18-.68.16.25,1.14.66,1.52.76,2.24a7.83,7.83,0,0,1-.06,1.82c-.06,5.11,0,4.6-.53,4.72-1.67.37-3,1.53-2.44,3.42.11.37-.22.19-.43.17-1-.08-.53,0-1-.6-2.21-3-3.3-2.59-2.65-3.5,1.15-1.6,2.71-.09.52-3.75a6.85,6.85,0,0,1-.66-1.39.36.36,0,0,1,.13-.4c1.29-1.4,1.67-1.62,1.63-2.89,0-.65-.69-.38-.72,0a1.74,1.74,0,0,1-.43,1.1c-2.89,3-2,1.57-1.94,4.11,0,.69-.69,1-.77.82a8.52,8.52,0,0,1-.26-.86c-.1-.63-.71-.55-.64.11.12,1.09.5,1,.2,1.12s-.63.28-.79-.08c-.44-1-.19-1.17-.61-1.19-.69,0,.07,1.44-.62.77a6.83,6.83,0,0,1-.61-2.46C131.8,37.89,132.72,37.46,134,35.66Zm3.34,5.76c1.23,2.23,1.11,1-.39,2.43-.61.59-.3,1.06-.63.88-2.7-1.45-2.39-.94-.68-1.62C138.09,42.13,135.22,37.61,137.31,41.42Zm-21.08-9.57a9.83,9.83,0,0,1,6.52,0,8,8,0,0,1,3.69,2.35c2.28,2.37,2.46,4.9,3.85,7.19s5.29,3.26,7.37,5.2c1.29,1.19,2.68,2.93,2.64,4.61a7.08,7.08,0,0,1-.4,3.29A5.93,5.93,0,0,1,138,57.22c-.14.12-1.36,1.07-1.55.93s.23-1.48-.22-3c-.05-.17-.22-.19-.38-.09-.4.25-.13,1.24-1.52,2.57-.75.72-2.6,2.28-2.34,1.28a10.2,10.2,0,0,0,.16-3.93c-.05-.35-.47-.39-.53-.07-.42,2.35-3.07,4.6-3.07,3.85a15.18,15.18,0,0,0-.61-6c-.19-.84,2.45-.1,2.16-5.22-.17-2.94-2.36-3.69-3.87-2.61a2.63,2.63,0,0,0-1.14,1.78c.07.51-.47.63-1.28.9-1.68.56-3.5-.46-5-1.47-.82-.56-2.33-2.51-5.44-3.65-2.25-.82-3.67,1.38-4.55-.3a2.94,2.94,0,0,1,.06-2.08,15.2,15.2,0,0,1,2.36-4.49C113.28,33.22,114.49,32.38,116.23,31.85ZM103,45.34c-.23-2.1,1.13-2.93,3.09-6.18,1.47-2.45,4.09-5,5.21-4.6a21.9,21.9,0,0,0-1.74,2.71c-.44.83-.38,1-.85,1-2,.12-1.38.86-1.06.77,1.44-.4,1,.06.59,1.37-.14.44-.07.49-.28.52-2,.25-4,1.82-3.63,2.2s.08-.55,3.63-1.55c.21-.06.26.45.26.51a1.62,1.62,0,0,0,.47,1c.58.82-3.09.79-3.85,2.67-.24.58,0,1.45.33,1.35.59-.15-.36-.79.76-1.61.26.64-.64,2.25,2.4,6.93,2.16,3.34,1.13,5.18,4,7.8,1.09,1,5.08,3.28,4.53,3.59-.84.46-2.71-.41-3.48-1.11-.09-.08-.47-.3-.64-.16-.64.54,1.55,3.15,1.72,3.38.92,1.19,1.59,1-.1,1.08-3.37.11-5.14-1.74-7.09-4.35-.4-.54-.78,0-.52.33,1.89,2.81,1.14,1,1.82,4.21a5.14,5.14,0,0,1-2.38-1.9c-2.58-3.19-.86-6.46-.23-9.56.41-2-.42-3.33-.67-4.62-.4-2.12.24-1.94.11-2.48-.09-.35-.37-.22-.87-.52C103,47.28,103.12,47,103,45.34ZM90.13,82.18C90.58,80.57,93.76,69,93.76,69s1.84-9.77,4.89-12.92a14.53,14.53,0,0,1,6-3.82c.25,0,.42.31.68,2.24-.39,3.87-3.11,7,.25,11.33,1.13,1.47,4.36,3.47,3.79,1.92a5.67,5.67,0,0,1-.41-1.83c1.52,1,1.49,1.32,4,1.66a8.61,8.61,0,0,0,3.28-.08c1.14-.28-.87-1-2-3-.85-1.44.33.9,3.52-.11.88-.29,1.41.69,3.45-.13.31-.13.53-.32.64-.13.27.46.2.5-3.37,2.78-4.28,2.75-4.64,2.46-7,6.14-3,4.63-6.71,6.93-6.71,8.13,0,.82-.07.71-.69,1.34a28.23,28.23,0,0,1-4.17,3.81.17.17,0,0,1-.14,0c-4.14-2.37-1.31-3.11-9.87,1.88-.35.21-.09-.16-1.26-.7C88.31,87.37,89.53,84.29,90.13,82.18ZM89,88.49c.67.21-8.82,6.11-8.93,5.8C78.82,91,79.15,90,76.66,88a12.38,12.38,0,0,0-3.49-2A20.25,20.25,0,0,0,71,85.23c-.5-.14-.66-.35-.09-.36s.89-.07,1.2-.05c.69,0,1.75,0,1.91,0C85.45,85.3,86.46,87.67,89,88.49ZM58,92.35c-.87-2.44-1.88-5-.93-7.47,1.46-3.75,1.71-4.25,3.27-5.53,3.66-3,7.77-.67,10.59.12a10.5,10.5,0,0,1,3.7,2.33c4,3.48,2.83,2.32,2.24,2.5,0,0-2.3-.06-2.83-.11-1.15-.12-6.47.11-5,.88,1,.56,1.46.26,2.85,1.12.8.49,1.29.27,3,1.37A17.39,17.39,0,0,1,77,89.2c1.06,1.2.25,0-3.74.56a18.77,18.77,0,0,0-5.86,1.6c-.45.22-.17.7.25.66a29.63,29.63,0,0,1,3.13-.21c4.74.11,7.62,2.24,7.78,2.48-.11,0-9-2.63-13.5.2-.53.32-.53.33-.38.93a5.29,5.29,0,0,0,.28,1c.36.77,0,.63.26,1.34a1.52,1.52,0,0,1,0,.94c-.07.26-1.92-.5-3.95-.61-1.46-.08-1.57.08-2-.53C58.75,96.73,58.39,93.48,58,92.35ZM33,148.86c.64.36.62.26.21,1.57-.16.53.4.64.55.23s.27-.9.4-1.19.63.08.6.37a7.29,7.29,0,0,1-.62,1.81c-.06.18-.25.09-.25.09a5,5,0,0,1-1.53-.42c-.55-.3-.11-.67.1-1.36.15-.49,0-.56-.17-.61-.44-.11-.54,1.65-.92,1.41s-.49-.31-.28-.67C31.92,148.59,30.83,147.67,33,148.86Zm-3-.52a1.38,1.38,0,0,1,.48-1.09c.23-.16.52-.16.59.14a4.22,4.22,0,0,1-.4,1.93c-.08.22-.3.48-.4.73s-.33-.26-.48-.38S29.93,149.44,30,148.34ZM36.53,158c-1.32,2.28-.72,2.39-1.58,4.7-1.5,4,2.85,9.78-9.87,7.63a5.4,5.4,0,0,0-2.35,0c-4.8.5-5.67,2.39-8.12,1.78-1.46-.36-.82.23-2.94-.47-.3-.1-.31-.17-.24-.5,0-.13,0-.29.12-.38.28-.29-.09-.67-.52-.53s-.4.61-.42.69c-.09.29-.3.13-1.21-.11A3,3,0,0,1,8.23,170c-.64-.74-2.8-.22-2.28-3,.09-.51,1.1-.49,1.36-.45,1.7.28,5-.65,5.58-.68,3.83-.21,7.19-4,9.51-4.59,2.06-.54,2.25-1.9,2.7-2,0,0,1.55-1.66,1.77-1.9.74-.85.26-.85,1.55-2.9.39-.62.3-.62,1.49-3.64.1-.25.16.08,2.27,1.11.91.44,2,.44,3.79,1.31a5.69,5.69,0,0,0,1.92.62C38.42,154,39.22,153.37,36.53,158Zm3.72-5.1c-.07.3-.13.57-.69.5a1,1,0,0,1-.47-.19c-.2-.15.1-.09.56-1.46.14-.39-.17-.67-.42-.4a13,13,0,0,1-.84,1.67c-.26.25-1,0-2-.3-.46-.15-.28-.16.2-1.49,0-.1.06-.55-.2-.52-.45.06-.57,1.36-.91,1.55-.09,0-.38-.12-.54-.14s-.14-.3-.1-.42c.92-2.1.24-2,1.21-1.7,1.48.43,1.68.43,1.56.69a12.24,12.24,0,0,0-.41,1.61c-.07.39.38.43.54,0,.57-1.53.39-1.55.58-1.67s.37-.07.54,0c.88.28,1.42.05,2,.32S40.63,151.48,40.25,152.91Zm3.65-8.36s-.87,1.58-1.24,2.12c-1.85,2.73-1.78,3.5-2.58,3.45a15.78,15.78,0,0,1-3.73-.72,14.89,14.89,0,0,1-4.24-2c-.64-.54-.18-.76.45-2.71,0,0,1.49-4.14,1.64-4.38.37-.56-.65.3,4.82,2.25,1.6.57,3.52,1.57,4.66,1.55C43.84,144.15,44,144.4,43.9,144.55Zm4-5.71c-2.33,3.62-1.43,2.47-2.61,3.89-.37.45-.37.55-1,.52-4-.46-3.15-1.05-5.85-1.78a6.52,6.52,0,0,1-2-.77c-.32-.23-1.54-1.21-1.6-1.31A7.4,7.4,0,0,0,33,137.66c-.65-.63.25.1,3.94-4.95,1.11-1.51,6.31-9.77,7-11.69.16-.49-.41-.59-.6-.28-.55.87-1.59,3.13-4.1,7.12-.46.74-3,4.85-2.75,4.07,2.05-6.14,1.87-6.61,3.16-9.53,4.12-9.42,3.89-7,6.45-15,2.32-7.31,5.65-8.54,11.61-8.64a38.5,38.5,0,0,1,5.92.56c12.46,1.51,15.61,3.46,29.53,8.43,4.58,1.63,7.82,5,10,3.12a5.39,5.39,0,0,0,1.92-3,.64.64,0,0,1,.92-.43c5.11,3.45,1.44.45,5.23,4.63a16.3,16.3,0,0,1,3.07,2.93c.7.88.74.87.45,1.58-1.89,4.59-2.58,2.57-14,5.14a38.32,38.32,0,0,1-7.79,1.18c-6.78.11-11.86,1.41-12.46.51-.78-1.17-4.18-3-5.31-3.78-7-5.12-4.37-4.31-12-7.39-1.33-.54-2.94-1.89-4.21-1.56-1.09.29-2,1.18-1.62,2.39.52,1.45,1.25,1.23.6,1.55-1.58.78-.2,2.37-.21,2.39s-.55.66-.52,1.1a2.39,2.39,0,0,0,.57,1.16c.17.24-.47.58.46,1.55.25.26-.11.59.27,1.24,0,0,.07.15,0,.18s0,.28,0,.43-.13.57-.9,2.33C56.25,128.38,54,129.24,47.87,138.84Zm11.07-18.59c-.28-.24-.22-.31-.06-.66.3-.69-.36-.64-.56-1.13-.45-1.1,1.53-.61.2-2-.19-.19-.49-.68-.23-1s.24-.18,1.85.73c.52.3,1,0,.82-.41-.34-.62-3.85-2.75-2.4-4,.82-.68,1.72-.06,2.44.27,13,5.93,7,4,14,8.49.2.13,5.39,3.2,4.58,3.31s-1.48.36-2.25.47c-2.48.37-3.44.34-3.86.41C70,125,64.32,127,59.78,122.25,58.77,121.19,60.07,121.22,58.94,120.25ZM57,129.59c-.45-.76-.65-.85-.36-1.15a16.76,16.76,0,0,0,2.63-5.07c.11-.51,0-.19,2.13,1.41,1.86,1.4,4.9,1.52,6.14,1.52,4.73,0,13.77-1.55,14.35-1.59,15-1.19,12.15-.54,19.4-2,15-3.1,11-.18,15-7.21.09-.17,1.8-4,1.81-4.06,3.81-9.42,5.92-9.72,12.32-9.23,1.88.15,2-.12,2.53.21a99.29,99.29,0,0,0,13.57,2.89c2.39.15,5.38-.78,5.56-3.11,0-.4.3-.22,1.87.21a5,5,0,0,1,3.91,4.05,3.41,3.41,0,0,1-1.6,3.19c-.89.63-2.08,1.29-6.28,1.07-4.57-.23-13.13-1.79-16.76-1.65-2.84.11-4.26-.06-5.63,2.24-8.88,14.87-7,15.76-12.84,18.25-9.12,3.87-38,9.66-47.61,7.21C63.86,135.89,61,136.44,57,129.59Zm34.11,19.58c-.23.43-7.27,13.26-9.74,17.55-.2.35-.28.57-.71.62a25.27,25.27,0,0,1-2.75-.09c-.47-.07-.33-.44-.25-.74.31-1.16,2-4.86,3.42-8.53,3-7.53,3.13-8.75,3.76-9.7.21-.21,4.29.51,4.63.57C90.35,149,91.17,149.05,91.11,149.17Zm52.26,28c.25.52-2.41.39-3.11.37-1,0-12.89-22.77-16.15-28.06-.39-.64-1.09-.46-.42.76,1,1.89,1.23,2,.51,1.84s-6.87-.59-6.92-.59c-1.6,0-8-.86-8.15-.87s-.26,0-.26-.39c0-1.05.38-3.38.44-4.71a.76.76,0,0,0-.17-.6c-.18-.16-.65-.38-.74.15-1.22,7.95-3,37.46-3.52,41.19-.09.57-.47.48-1.18.61a3.27,3.27,0,0,1-2-.25c-.24-.15-.32-.24-.35-1.69-.1-4.24-.7-18.71-.69-18.86.06-.68-.17-22-.17-22a.39.39,0,0,0-.77.09c-.28,4.74,0,5.53-.37,5.37s-34.66-4.93-38.86-5.86c-.69-.15-.91-.6-1.12-.45-1.36,1,3.34,1.63,5,1.8.26,0-17.61,32.69-18.42,32.82-.36,0-.71,0-.71,0-2.23-.05-2.87.11-2.26-1,1.78-3.17,13.78-36.45,16-42.67.16-.46.45,1,2.92,2.08,12,5.39,68.65,7.36,68.69,8.06C130.64,144.48,138.51,167.12,143.37,177.13Zm-12.8-34c-9-.74-36.8-1.7-57.33-5.07.48-.1,3.19,0,3.19-.06,6.57,0,26.23-2.8,36.72-6.8a16.67,16.67,0,0,0,5.32-2.64,11.46,11.46,0,0,0,2.08-2.81c2-3.14,5-8.88,6.7-12s2.18-3.21,3.08-3.48c5.08-1.53,16.84,1.84,22.37,1.35,4.63-.4,5.42-3.79,1.54,2.86-10.48,18-10.88,20.74-14.69,26.84a3.4,3.4,0,0,1-2.52,1.43A29.94,29.94,0,0,1,130.57,143.13Z" fill="#000001"></path><path d="M139.23,17.7c.2-.86-.12-3.43-.64-3.17-.27.14.08.9.19,1.56a6.18,6.18,0,0,1,0,1.59C138.78,18,139.12,18.19,139.23,17.7Z" fill="#000001"></path><path d="M135.85,26.43c.11-.1.22-.12.55,0,.74.17,1.68.09,2-.46.54-.81.56-1.24.49-1.45s-.36-.16-.48.1c-.3.64-.74,1.24-1.53,1.19-1.65-.12-1.11-.39-.91-1.42a.66.66,0,0,0-.11-.53c-.24-.21-.85.25-.92.31-.47.42-1.32.21-.92.85a.8.8,0,0,0,.4.32,5.41,5.41,0,0,1,.84.36c.1,0-.12.83-.37,1.08a1.13,1.13,0,0,1-1.17.35c-.29-.1-.49-.36-.6-.38-.35-.07-.21.5.14.78a1.51,1.51,0,0,0,1.7.09A1.77,1.77,0,0,0,135.85,26.43Z" fill="#000001"></path><path d="M137.77,51c.79,2.46-.47,3.6.28,4,.44.21.61-1.53.69-2-.3-2.26-.28-2.76-2-4.89-.13-.17-.42-.07-.49-.32C134.65,47.87,136.71,47.72,137.77,51Z" fill="#000001"></path><path d="M136.82,23.3c.46-.23,0-1.42-.68-1.1a.53.53,0,0,0-.17.59A.61.61,0,0,0,136.82,23.3Z" fill="#000001"></path><path d="M134.8,67c0-1.63.12-2-.33-2-.88-.11.15,8.78.59,9.42C136,75.69,134.76,69.93,134.8,67Z" fill="#000001"></path><path d="M133.78,50.35c.15.9.86,3.53.12,4.7-.85,1.33-.08,1.43.11,1.07.76-1.47,1-1.66.62-4.33s-.44-3.27-3-6.65c-.18-.23-.67-.18-.56.08C131.51,46.39,133.4,47.92,133.78,50.35Z" fill="#000001"></path><path d="M133.18,24.63c.5-.38-.22-1.36-.68-1a.38.38,0,0,0-.11.5C132.52,24.54,132.88,24.85,133.18,24.63Z" fill="#000001"></path><path d="M130.35,53.21c.11.39.17,1,.34,1s.24.11.29-.12a4.24,4.24,0,0,0-.27-1.64c-.25-.54-.38-.82-.57-.72S130.08,52.23,130.35,53.21Z" fill="#000001"></path><path d="M118.71,84.87c-.19,0,0,.2,0,.29s-.27.08-.09.18a11.87,11.87,0,0,0,8,1.78s2.76.09,2.38-.53c-.26-.42-.16-.29-1.84-.16-.86.07-.36-.17-1.23,0C122.71,87,119.32,84.73,118.71,84.87Z" fill="#000001"></path><path d="M127.05,49.38c.56.22.14.52.09.87-.13.83,1.21.09.85-.89s-1.16-.43-1.16-1.19c0-1,.64-2.05,1.25-1.36a1.55,1.55,0,0,0,.19.24.27.27,0,0,0,.42-.14c.09-1.21-2-1.63-2.48.79C126,48.72,126.42,49.14,127.05,49.38Z" fill="#000001"></path><path d="M127,38.37c1,2,1.11,2.18,1.44,2s.11-.5-1-2.5a11.91,11.91,0,0,0-4.27-4.42C121.87,34.07,125.05,34.51,127,38.37Z" fill="#000001"></path><path d="M119.92,35c2.26,1.2,5.23,6,6.86,7.16.29.21.55-.21.36-.4-.77-.76-.82-.76-.82-.75a34,34,0,0,0-2.41-3.15c-3.44-4.31-5.81-4.12-6-4.22C117.37,34,118.25,34.08,119.92,35Z" fill="#000001"></path><path d="M125.59,43.53c-1-.19-1.3-1.28-1.79-1-.33.19,1.46,2.27,2.17,1.45C125.9,43.77,125.83,43.58,125.59,43.53Z" fill="#000001"></path><path d="M110.91,39.85a4.19,4.19,0,0,1,1.54-.65,12.58,12.58,0,0,1,2.31.26c4,1.74,5.84,5.94,8.76,6.31.83.11.89-.52.44-.63-3.5-.9-3.59-2.8-5.77-4.25a19.89,19.89,0,0,0-2.51-1.77,5.5,5.5,0,0,0-4.16-.34c-.19.09-.41.24-.9.53S110.63,40,110.91,39.85Z" fill="#000001"></path><path d="M113.87,36.08a4.86,4.86,0,0,0,1.07-.16,6.29,6.29,0,0,1,3,1.1c2.85,2,3.63,3.38,4.39,3.89.38.26,1-.15-1.65-2.52-2.19-2-4.27-3.66-7.08-2.83C113.28,35.66,113.59,36.14,113.87,36.08Z" fill="#000001"></path><path d="M118.84,86.17c-.4-.19-1.32.48,1.66,1.76.47.2,1,.33,1.46.54a.42.42,0,0,0,.54-.4c-.47-.54-1.34-.62-1.77-.83A13.31,13.31,0,0,1,118.84,86.17Z" fill="#000001"></path><path d="M114.7,59.59c.16.29.69-.57,1.14,0,.18.23.56.23.87.75.43.74.93,1.38,1.75,1.36,2.25,0,2.23-3.79,2.4-5.37,0-.5.24-.22.51-.11s.57-.13.39-.43c-.65-1.09-2.23-.86-2-.22.11.27.65.11.41.37a4.87,4.87,0,0,1-2.42,1.33C116.81,57.59,114.21,58.75,114.7,59.59Zm3.7,1.5c-.28-.1-.4-.82.3-1.59C121.12,56.81,119.47,61.47,118.4,61.09Zm.87-3.65c.26-.09.31-.23.84-.48.25.88-2.63,1.89-3.55,2.23-.14.05-.53-.18-.64-.23C115.46,58.76,118.77,57.62,119.27,57.44Z" fill="#000001"></path><path d="M112.53,50a1.92,1.92,0,0,0,.8-.26c2.46-2,3-1.57,3.68-1.24.07,0,.88,0,.38-.54a2.08,2.08,0,0,0-2.28-.26c-1,.32-2.13,1.92-3,1.58C111.76,49.14,111.27,49.84,112.53,50Z" fill="#000001"></path><path d="M115.46,51.78c-.31-.41-1,.18-.53.88C115.3,53.16,116.15,52.69,115.46,51.78Z" fill="#000001"></path><path d="M115.3,56.18c.06-.2-.13-.57-.44-.33-.75.59-.38.75-1.68.84-.16,0-1.08-.27-.52-.88,1-1.05.84-1.93.34-2.57a.26.26,0,0,0-.45.18c.14.7.45,1.07-.23,1.75C110.27,57.25,114.57,58.42,115.3,56.18Z" fill="#000001"></path><path d="M111.82,54.58c.24-.66-.71-1.07-.86-.72C110.63,54.64,111.65,55.05,111.82,54.58Z" fill="#000001"></path><path d="M111.58,64.58c.33-.43-.63-.54-1.43-1.89-1.22-2.08-1.11-9.35-2.15-7.31,1,3.41.17,5.45,1.77,7.93C110.09,63.81,111.22,65.06,111.58,64.58Z" fill="#000001"></path><path d="M109.11,96.38c-.43-.79.4-1.26-.41-2.2-.29-.35.21-.66-.06-1.64-.09-.35-.31-.62-.25-1s.2-.6.14-.94-.38-.17-.51.07c-.81,1.55.34,1.6,0,2.93-.18.6.22.92.35,1.21.29.63-.37,1.13.21,2,.4.59,0,1,.59,1.46.27.23.79.06.51-.44S109.49,97.09,109.11,96.38Z" fill="#000001"></path><path d="M106.69,60.47c.34-.07,0-.48.5-2.63a3.35,3.35,0,0,0,0-.71c0-.16-.13-.22-.28-.23C106.52,56.89,105.86,60.64,106.69,60.47Z" fill="#000001"></path><path d="M61.09,122.68c.43-.32.36-.31.31-.47a3.19,3.19,0,0,1,.33-2.74c1.17-1.83-.5-2.78-.46-1.35,0,1.09-.94,1.58-.81,2.93C60.34,121.45,60.87,122.84,61.09,122.68Z" fill="#000001"></path><path d="M50.61,114.61c-.5,6.77-4,9.85-5.81,21-.31,1.89-.33,2,0,2.11.77.4,1.09-4,2-7.42,1.23-4.72,5.15-12.59,4.53-16.11C51.22,113.83,50.67,113.7,50.61,114.61Z" fill="#000001"></path></g></g></svg>